<svg xmlns="http://www.w3.org/2000/svg" xmlns:xlink="http://www.w3.org/1999/xlink" width="1905" zoomAndPan="magnify" viewBox="0 0 1428.75 339.749992" height="453" preserveAspectRatio="xMidYMid meet" version="1.0"><defs><g/><clipPath id="5d10c750da"><path d="M 0.398438 0 L 1428.101562 0 L 1428.101562 336 L 0.398438 336 Z M 0.398438 0 " clip-rule="nonzero"/></clipPath><clipPath id="4bc4e5c295"><path d="M 0.398438 56 L 1428.070312 56 L 1428.070312 316 L 0.398438 316 Z M 0.398438 56 " clip-rule="nonzero"/></clipPath><clipPath id="24b77b53db"><path d="M 8 0.359375 L 147 0.359375 L 147 196 L 8 196 Z M 8 0.359375 " clip-rule="nonzero"/></clipPath><clipPath id="1f8ab9eb12"><path d="M 689 0.359375 L 798 0.359375 L 798 196 L 689 196 Z M 689 0.359375 " clip-rule="nonzero"/></clipPath><clipPath id="b1c514c065"><path d="M 886 0.359375 L 1024 0.359375 L 1024 196 L 886 196 Z M 886 0.359375 " clip-rule="nonzero"/></clipPath><clipPath id="dd2ac7b1a1"><rect x="0" width="1429" y="0" height="260"/></clipPath><clipPath id="87c306c2e4"><path d="M 1343.402344 275.550781 L 1402.328125 275.550781 L 1402.328125 334.476562 L 1343.402344 334.476562 Z M 1343.402344 275.550781 " clip-rule="nonzero"/></clipPath><clipPath id="e7b084c18f"><path d="M 1372.863281 275.550781 C 1356.59375 275.550781 1343.402344 288.742188 1343.402344 305.015625 C 1343.402344 321.285156 1356.59375 334.476562 1372.863281 334.476562 C 1389.136719 334.476562 1402.328125 321.285156 1402.328125 305.015625 C 1402.328125 288.742188 1389.136719 275.550781 1372.863281 275.550781 Z M 1372.863281 275.550781 " clip-rule="nonzero"/></clipPath><clipPath id="8fe7bbb28e"><path d="M 0.402344 0.550781 L 59.328125 0.550781 L 59.328125 59.476562 L 0.402344 59.476562 Z M 0.402344 0.550781 " clip-rule="nonzero"/></clipPath><clipPath id="de15bce148"><path d="M 29.863281 0.550781 C 13.59375 0.550781 0.402344 13.742188 0.402344 30.015625 C 0.402344 46.285156 13.59375 59.476562 29.863281 59.476562 C 46.136719 59.476562 59.328125 46.285156 59.328125 30.015625 C 59.328125 13.742188 46.136719 0.550781 29.863281 0.550781 Z M 29.863281 0.550781 " clip-rule="nonzero"/></clipPath><clipPath id="080011c3f0"><rect x="0" width="60" y="0" height="60"/></clipPath><clipPath id="e839b49ee8"><path d="M 542 276 L 1336 276 L 1336 335.035156 L 542 335.035156 Z M 542 276 " clip-rule="nonzero"/></clipPath><clipPath id="34bcb7f1c6"><path d="M 1 0.277344 L 31 0.277344 L 31 48 L 1 48 Z M 1 0.277344 " clip-rule="nonzero"/></clipPath><clipPath id="24b57f72c5"><rect x="0" width="794" y="0" height="60"/></clipPath><clipPath id="6a2ac8214a"><path d="M 84 0 L 154 0 L 154 110 L 84 110 Z M 84 0 " clip-rule="nonzero"/></clipPath><clipPath id="bd9e5b6d91"><rect x="0" width="232" y="0" height="147"/></clipPath><clipPath id="da7a4b743f"><rect x="0" width="1429" y="0" height="336"/></clipPath></defs><g clip-path="url(#5d10c750da)"><g transform="matrix(1, 0, 0, 1, 0.000000000000000056, 0)"><g clip-path="url(#da7a4b743f)"><g clip-path="url(#4bc4e5c295)"><g transform="matrix(1, 0, 0, 1, 0.000000000000000056, 56)"><g clip-path="url(#dd2ac7b1a1)"><g clip-path="url(#24b77b53db)"><g fill="#e6e6fa" fill-opacity="1"><g transform="translate(0.400384, 193.498965)"><g><path d="M 87.921875 1.90625 C 74.691406 1.90625 63.054688 -0.789062 53.015625 -6.1875 C 42.972656 -11.59375 34.582031 -18.96875 27.84375 -28.3125 C 21.101562 -37.664062 16.046875 -48.316406 12.671875 -60.265625 C 9.304688 -72.210938 7.625 -84.734375 7.625 -97.828125 C 7.625 -111.429688 9.59375 -123.984375 13.53125 -135.484375 C 17.476562 -146.992188 23.234375 -157.039062 30.796875 -165.625 C 38.359375 -174.207031 47.507812 -180.847656 58.25 -185.546875 C 69 -190.253906 81.113281 -192.609375 94.59375 -192.609375 C 101.195312 -192.609375 107.582031 -191.65625 113.75 -189.75 C 119.914062 -187.84375 125.414062 -185.363281 130.25 -182.3125 C 135.082031 -179.257812 138.640625 -175.953125 140.921875 -172.390625 L 122.234375 -150.078125 C 114.734375 -158.984375 105.832031 -166.132812 95.53125 -171.53125 C 85.238281 -176.9375 74.691406 -179.640625 63.890625 -179.640625 C 55.242188 -179.640625 47.835938 -176.96875 41.671875 -171.625 C 35.503906 -166.289062 30.796875 -158.953125 27.546875 -149.609375 C 24.304688 -140.265625 22.6875 -129.488281 22.6875 -117.28125 C 22.6875 -105.207031 24.117188 -93.703125 26.984375 -82.765625 C 29.847656 -71.828125 34.140625 -62.128906 39.859375 -53.671875 C 45.578125 -45.222656 52.597656 -38.550781 60.921875 -33.65625 C 69.253906 -28.757812 78.820312 -26.3125 89.625 -26.3125 C 97.632812 -26.3125 104.34375 -27.296875 109.75 -29.265625 C 115.15625 -31.242188 119.414062 -33.472656 122.53125 -35.953125 C 125.644531 -38.429688 127.867188 -40.65625 129.203125 -42.625 C 130.535156 -44.59375 131.203125 -45.578125 131.203125 -45.578125 L 146.453125 -21.171875 C 146.453125 -21.171875 145.273438 -19.992188 142.921875 -17.640625 C 140.578125 -15.285156 136.988281 -12.613281 132.15625 -9.625 C 127.320312 -6.644531 121.21875 -3.976562 113.84375 -1.625 C 106.46875 0.726562 97.828125 1.90625 87.921875 1.90625 Z M 87.921875 1.90625 "/></g></g></g></g><g fill="#e6e6fa" fill-opacity="1"><g transform="translate(149.71856, 193.498965)"><g><path d="M 44.25 1.90625 C 41.695312 1.90625 38.578125 1.585938 34.890625 0.953125 C 31.210938 0.316406 27.59375 -1.109375 24.03125 -3.328125 C 20.46875 -5.554688 17.476562 -9.148438 15.0625 -14.109375 C 12.644531 -19.066406 11.4375 -25.804688 11.4375 -34.328125 L 11.4375 -129.671875 L 39.09375 -129.671875 L 39.09375 -24.796875 C 39.09375 -18.691406 40.519531 -14.144531 43.375 -11.15625 C 46.238281 -8.164062 49.960938 -6.671875 54.546875 -6.671875 C 59.628906 -6.671875 64.394531 -8.066406 68.84375 -10.859375 C 73.289062 -13.660156 77.164062 -17.445312 80.46875 -22.21875 C 83.78125 -26.988281 86.359375 -32.421875 88.203125 -38.515625 C 90.046875 -44.617188 90.96875 -50.976562 90.96875 -57.59375 L 90.96875 -129.671875 L 118.625 -129.671875 L 118.625 0 L 90.96875 0 L 90.96875 -39.09375 C 90.332031 -35.15625 88.835938 -30.800781 86.484375 -26.03125 C 84.128906 -21.257812 80.976562 -16.773438 77.03125 -12.578125 C 73.09375 -8.390625 68.359375 -4.925781 62.828125 -2.1875 C 57.304688 0.539062 51.113281 1.90625 44.25 1.90625 Z M 44.25 1.90625 "/></g></g></g><g fill="#e6e6fa" fill-opacity="1"><g transform="translate(279.776023, 193.498965)"><g><path d="M 0 -117.859375 C 4.707031 -118.492188 9.601562 -119.507812 14.6875 -120.90625 C 19.769531 -122.300781 24.628906 -123.953125 29.265625 -125.859375 C 33.910156 -127.765625 37.882812 -129.671875 41.1875 -131.578125 L 41.1875 -90.578125 C 42.207031 -95.035156 43.765625 -99.644531 45.859375 -104.40625 C 47.960938 -109.175781 50.695312 -113.625 54.0625 -117.75 C 57.4375 -121.882812 61.472656 -125.222656 66.171875 -127.765625 C 70.878906 -130.304688 76.347656 -131.578125 82.578125 -131.578125 C 90.328125 -131.578125 96.8125 -129.988281 102.03125 -126.8125 L 91.921875 -101.828125 C 88.609375 -103.484375 85.171875 -104.914062 81.609375 -106.125 C 78.054688 -107.332031 74.117188 -107.9375 69.796875 -107.9375 C 64.835938 -107.9375 60.195312 -106.632812 55.875 -104.03125 C 51.550781 -101.425781 48.019531 -97.675781 45.28125 -92.78125 C 42.550781 -87.882812 41.1875 -82.003906 41.1875 -75.140625 L 41.1875 0 L 13.546875 0 L 13.546875 -104.5 C 13.546875 -109.71875 12.460938 -113.085938 10.296875 -114.609375 C 8.140625 -116.140625 4.707031 -116.90625 0 -116.90625 Z M 0 -117.859375 "/></g></g></g><g fill="#e6e6fa" fill-opacity="1"><g transform="translate(377.986513, 193.498965)"><g><path d="M 5.71875 -25.546875 C 5.71875 -31.523438 7.113281 -37.21875 9.90625 -42.625 C 12.707031 -48.03125 16.492188 -53.144531 21.265625 -57.96875 C 26.035156 -62.800781 31.40625 -67.28125 37.375 -71.40625 C 43.351562 -75.539062 49.457031 -79.328125 55.6875 -82.765625 C 49.457031 -85.429688 43.195312 -87.59375 36.90625 -89.25 C 30.613281 -90.90625 24.828125 -92.175781 19.546875 -93.0625 C 14.273438 -93.945312 9.984375 -94.457031 6.671875 -94.59375 C 8.578125 -102.601562 12.265625 -109.335938 17.734375 -114.796875 C 23.203125 -120.265625 29.554688 -124.425781 36.796875 -127.28125 C 44.046875 -130.144531 51.296875 -131.578125 58.546875 -131.578125 C 68.078125 -131.578125 75.609375 -130.175781 81.140625 -127.375 C 86.671875 -124.582031 90.960938 -120.738281 94.015625 -115.84375 C 97.066406 -110.957031 99.414062 -105.429688 101.0625 -99.265625 C 102.71875 -93.097656 104.375 -86.582031 106.03125 -79.71875 C 108.320312 -70.6875 110.390625 -62.101562 112.234375 -53.96875 C 114.078125 -45.832031 116.046875 -37.472656 118.140625 -28.890625 C 120.234375 -20.304688 122.550781 -10.675781 125.09375 0 L 97.0625 0 L 97.0625 -40.421875 C 97.0625 -36.097656 95.882812 -31.488281 93.53125 -26.59375 C 91.1875 -21.707031 87.722656 -17.101562 83.140625 -12.78125 C 78.566406 -8.457031 72.878906 -4.925781 66.078125 -2.1875 C 59.273438 0.539062 51.488281 1.90625 42.71875 1.90625 C 36.738281 1.90625 30.921875 0.859375 25.265625 -1.234375 C 19.609375 -3.335938 14.9375 -6.453125 11.25 -10.578125 C 7.5625 -14.710938 5.71875 -19.703125 5.71875 -25.546875 Z M 94.203125 -40.421875 C 94.203125 -46.398438 92.832031 -51.769531 90.09375 -56.53125 C 87.363281 -61.300781 83.675781 -65.59375 79.03125 -69.40625 C 74.394531 -73.226562 69.21875 -76.535156 63.5 -79.328125 C 57.90625 -75.140625 52.753906 -70.4375 48.046875 -65.21875 C 43.347656 -60.007812 39.597656 -54.445312 36.796875 -48.53125 C 34.003906 -42.625 32.609375 -36.363281 32.609375 -29.75 C 32.609375 -25.039062 33.847656 -20.90625 36.328125 -17.34375 C 38.804688 -13.789062 42.175781 -10.960938 46.4375 -8.859375 C 50.695312 -6.765625 55.429688 -5.71875 60.640625 -5.71875 C 65.222656 -5.71875 69.546875 -6.925781 73.609375 -9.34375 C 77.679688 -11.757812 81.273438 -14.8125 84.390625 -18.5 C 87.503906 -22.1875 89.914062 -26 91.625 -29.9375 C 93.34375 -33.882812 94.203125 -37.378906 94.203125 -40.421875 Z M 59.6875 -85.046875 C 66.9375 -88.734375 73.863281 -91.847656 80.46875 -94.390625 C 87.082031 -96.941406 92.550781 -98.851562 96.875 -100.125 C 96.363281 -108 93.691406 -113.8125 88.859375 -117.5625 C 84.035156 -121.3125 78.441406 -123.1875 72.078125 -123.1875 C 66.109375 -123.1875 60.832031 -122.265625 56.25 -120.421875 C 51.675781 -118.578125 47.832031 -116.289062 44.71875 -113.5625 C 41.601562 -110.832031 39.25 -108.066406 37.65625 -105.265625 C 36.070312 -102.472656 35.28125 -100.125 35.28125 -98.21875 C 35.28125 -97.320312 35.5 -96.238281 35.9375 -94.96875 C 36.382812 -93.695312 37.4375 -92.804688 39.09375 -92.296875 C 46.46875 -90.140625 53.332031 -87.722656 59.6875 -85.046875 Z M 97.0625 -96.875 C 92.488281 -95.476562 87.5625 -93.472656 82.28125 -90.859375 C 77.007812 -88.253906 71.832031 -85.175781 66.75 -81.625 C 75.769531 -76.914062 83.078125 -71.222656 88.671875 -64.546875 C 94.265625 -57.878906 97.0625 -49.835938 97.0625 -40.421875 Z M 97.0625 -96.875 "/></g></g></g><g fill="#e6e6fa" fill-opacity="1"><g transform="translate(499.271657, 193.498965)"><g><path d="M 15.828125 -126.8125 L 0 -126.8125 L 43.859375 -170.875 C 43.859375 -163.238281 43.828125 -156.050781 43.765625 -149.3125 C 43.703125 -142.582031 43.671875 -136.035156 43.671875 -129.671875 L 63.5 -129.671875 L 63.5 -126.8125 L 43.671875 -126.8125 C 43.671875 -116.394531 43.640625 -106.226562 43.578125 -96.3125 C 43.515625 -86.394531 43.484375 -76.09375 43.484375 -65.40625 C 43.484375 -54.726562 43.484375 -43.035156 43.484375 -30.328125 C 43.484375 -27.273438 43.832031 -24.378906 44.53125 -21.640625 C 45.226562 -18.910156 46.53125 -16.6875 48.4375 -14.96875 C 50.34375 -13.25 53.203125 -12.390625 57.015625 -12.390625 C 58.796875 -12.390625 60.476562 -12.515625 62.0625 -12.765625 C 63.65625 -13.023438 65.15625 -13.410156 66.5625 -13.921875 L 66.9375 -12.96875 C 64.132812 -11.3125 60.828125 -9.304688 57.015625 -6.953125 C 53.203125 -4.609375 49.609375 -2.546875 46.234375 -0.765625 C 42.867188 1.015625 40.234375 1.90625 38.328125 1.90625 C 33.367188 1.90625 29.203125 0.765625 25.828125 -1.515625 C 22.460938 -3.804688 19.953125 -6.734375 18.296875 -10.296875 C 16.648438 -13.859375 15.828125 -17.546875 15.828125 -21.359375 Z M 15.828125 -126.8125 "/></g></g></g><g fill="#e6e6fa" fill-opacity="1"><g transform="translate(556.672298, 193.498965)"><g><path d="M 74.1875 1.90625 C 65.28125 1.90625 56.945312 0.285156 49.1875 -2.953125 C 41.4375 -6.191406 34.570312 -10.765625 28.59375 -16.671875 C 22.625 -22.585938 17.953125 -29.488281 14.578125 -37.375 C 11.210938 -45.257812 9.53125 -53.78125 9.53125 -62.9375 C 9.53125 -71.832031 10.707031 -80.378906 13.0625 -88.578125 C 15.414062 -96.773438 19.070312 -104.113281 24.03125 -110.59375 C 28.988281 -117.082031 35.40625 -122.203125 43.28125 -125.953125 C 51.164062 -129.703125 60.640625 -131.578125 71.703125 -131.578125 C 81.109375 -131.578125 89.304688 -129.957031 96.296875 -126.71875 C 103.296875 -123.476562 108.734375 -119.28125 112.609375 -114.125 C 116.484375 -108.976562 118.421875 -103.484375 118.421875 -97.640625 C 118.421875 -91.921875 116.925781 -87.3125 113.9375 -83.8125 C 110.957031 -80.3125 107.050781 -77.320312 102.21875 -74.84375 C 97.382812 -72.363281 92.296875 -69.851562 86.953125 -67.3125 C 80.859375 -64.394531 74.820312 -61.410156 68.84375 -58.359375 C 62.863281 -55.304688 57.457031 -52.507812 52.625 -49.96875 C 47.800781 -47.425781 43.988281 -45.390625 41.1875 -43.859375 C 46.019531 -37.628906 51.992188 -32.671875 59.109375 -28.984375 C 66.234375 -25.296875 74.242188 -23.453125 83.140625 -23.453125 C 90.265625 -23.453125 97.097656 -24.914062 103.640625 -27.84375 C 110.191406 -30.769531 115.3125 -34.582031 119 -39.28125 L 119.953125 -39.28125 L 109.078125 -5.15625 C 103.992188 -2.601562 98.429688 -0.789062 92.390625 0.28125 C 86.359375 1.363281 80.289062 1.90625 74.1875 1.90625 Z M 57.59375 -126.0625 C 50.601562 -126.0625 44.847656 -124.21875 40.328125 -120.53125 C 35.816406 -116.84375 32.507812 -112.132812 30.40625 -106.40625 C 28.3125 -100.6875 27.265625 -94.710938 27.265625 -88.484375 C 27.265625 -71.953125 31.398438 -57.773438 39.671875 -45.953125 C 41.953125 -47.222656 45.160156 -49.160156 49.296875 -51.765625 C 53.429688 -54.378906 57.847656 -57.429688 62.546875 -60.921875 C 67.253906 -64.421875 71.769531 -68.203125 76.09375 -72.265625 C 80.414062 -76.335938 83.941406 -80.535156 86.671875 -84.859375 C 89.410156 -89.179688 90.78125 -93.441406 90.78125 -97.640625 C 90.78125 -100.179688 90.300781 -103.070312 89.34375 -106.3125 C 88.394531 -109.5625 86.710938 -112.675781 84.296875 -115.65625 C 81.878906 -118.644531 78.507812 -121.125 74.1875 -123.09375 C 69.863281 -125.070312 64.332031 -126.0625 57.59375 -126.0625 Z M 57.59375 -126.0625 "/></g></g></g><g clip-path="url(#1f8ab9eb12)"><g fill="#e6e6fa" fill-opacity="1"><g transform="translate(680.436696, 193.498965)"><g><path d="M 9.53125 -54.734375 C 9.53125 -69.984375 12.582031 -83.234375 18.6875 -94.484375 C 24.789062 -105.742188 33.335938 -114.421875 44.328125 -120.515625 C 55.328125 -126.617188 68.140625 -129.671875 82.765625 -129.671875 L 89.25 -129.671875 L 89.25 -166.296875 C 89.25 -171.503906 88.164062 -174.742188 86 -176.015625 C 83.84375 -177.285156 80.410156 -177.921875 75.703125 -177.921875 L 75.703125 -178.875 C 80.410156 -179.507812 85.304688 -180.523438 90.390625 -181.921875 C 95.472656 -183.328125 100.332031 -184.984375 104.96875 -186.890625 C 109.613281 -188.796875 113.59375 -190.703125 116.90625 -192.609375 L 116.90625 0 L 89.25 0 L 89.25 -23.078125 C 85.4375 -15.578125 80.347656 -9.535156 73.984375 -4.953125 C 67.628906 -0.378906 59.941406 1.90625 50.921875 1.90625 C 43.546875 1.90625 37.25 0.316406 32.03125 -2.859375 C 26.820312 -6.035156 22.5625 -10.328125 19.25 -15.734375 C 15.945312 -21.140625 13.5 -27.207031 11.90625 -33.9375 C 10.320312 -40.675781 9.53125 -47.609375 9.53125 -54.734375 Z M 35.09375 -59.3125 C 35.09375 -54.226562 35.757812 -49.140625 37.09375 -44.046875 C 38.425781 -38.960938 40.394531 -34.289062 43 -30.03125 C 45.601562 -25.769531 48.875 -22.367188 52.8125 -19.828125 C 56.757812 -17.285156 61.40625 -16.015625 66.75 -16.015625 C 72.851562 -16.015625 77.492188 -16.9375 80.671875 -18.78125 C 83.847656 -20.625 86.039062 -22.785156 87.25 -25.265625 C 88.457031 -27.742188 89.125 -30 89.25 -32.03125 L 89.25 -126.8125 L 81.625 -126.8125 C 72.976562 -126.8125 65.125 -123.882812 58.0625 -118.03125 C 51.007812 -112.1875 45.414062 -104.210938 41.28125 -94.109375 C 37.15625 -84.003906 35.09375 -72.40625 35.09375 -59.3125 Z M 35.09375 -59.3125 "/></g></g></g></g><g fill="#e6e6fa" fill-opacity="1"><g transform="translate(806.680134, 193.498965)"><g/></g></g><g clip-path="url(#b1c514c065)"><g fill="#e6e6fa" fill-opacity="1"><g transform="translate(882.960212, 193.498965)"><g><path d="M 66.359375 1.90625 C 57.710938 1.90625 49.320312 0.859375 41.1875 -1.234375 C 33.050781 -3.335938 25.707031 -6.070312 19.15625 -9.4375 C 12.613281 -12.8125 7.5 -16.34375 3.8125 -20.03125 L 15.25 -46.53125 C 22.113281 -42.332031 28.785156 -38.546875 35.265625 -35.171875 C 41.753906 -31.804688 48.65625 -29.171875 55.96875 -27.265625 C 63.28125 -25.359375 71.453125 -24.40625 80.484375 -24.40625 C 84.671875 -24.40625 89.242188 -24.628906 94.203125 -25.078125 C 99.160156 -25.523438 104.148438 -26.316406 109.171875 -27.453125 C 114.191406 -28.597656 118.769531 -30.25 122.90625 -32.40625 C 127.039062 -34.570312 130.347656 -37.304688 132.828125 -40.609375 C 135.304688 -43.921875 136.546875 -47.992188 136.546875 -52.828125 C 136.546875 -57.398438 135.207031 -61.148438 132.53125 -64.078125 C 129.863281 -67.003906 126.273438 -69.390625 121.765625 -71.234375 C 117.253906 -73.078125 112.203125 -74.566406 106.609375 -75.703125 C 101.015625 -76.847656 95.226562 -77.832031 89.25 -78.65625 C 83.269531 -79.488281 77.484375 -80.347656 71.890625 -81.234375 C 55.867188 -84.035156 43.1875 -87.914062 33.84375 -92.875 C 24.5 -97.832031 17.820312 -104.09375 13.8125 -111.65625 C 9.8125 -119.21875 7.8125 -128.210938 7.8125 -138.640625 C 7.8125 -144.484375 9.019531 -150.550781 11.4375 -156.84375 C 13.851562 -163.144531 17.828125 -168.992188 23.359375 -174.390625 C 28.890625 -179.796875 36.296875 -184.179688 45.578125 -187.546875 C 54.859375 -190.921875 66.363281 -192.609375 80.09375 -192.609375 C 86.707031 -192.609375 93.664062 -192.191406 100.96875 -191.359375 C 108.28125 -190.535156 115.144531 -189.203125 121.5625 -187.359375 C 127.988281 -185.515625 133.171875 -183.003906 137.109375 -179.828125 L 129.296875 -150.84375 C 125.609375 -153.507812 120.550781 -155.921875 114.125 -158.078125 C 107.707031 -160.242188 100.523438 -161.992188 92.578125 -163.328125 C 84.640625 -164.671875 76.601562 -165.34375 68.46875 -165.34375 C 61.46875 -165.34375 54.566406 -164.800781 47.765625 -163.71875 C 40.960938 -162.632812 34.796875 -160.945312 29.265625 -158.65625 C 23.742188 -156.375 19.328125 -153.390625 16.015625 -149.703125 C 12.710938 -146.015625 11.0625 -141.566406 11.0625 -136.359375 C 11.0625 -132.035156 12.300781 -128.535156 14.78125 -125.859375 C 17.257812 -123.191406 20.5625 -121.15625 24.6875 -119.75 C 28.820312 -118.351562 33.398438 -117.367188 38.421875 -116.796875 C 43.441406 -116.234375 48.492188 -115.851562 53.578125 -115.65625 C 58.671875 -115.46875 63.378906 -115.25 67.703125 -115 C 82.066406 -113.976562 94.679688 -111.273438 105.546875 -106.890625 C 116.421875 -102.503906 124.910156 -96.273438 131.015625 -88.203125 C 137.117188 -80.128906 140.171875 -70.117188 140.171875 -58.171875 C 140.171875 -48.890625 138.132812 -40.53125 134.0625 -33.09375 C 130 -25.65625 124.5 -19.328125 117.5625 -14.109375 C 110.632812 -8.898438 102.753906 -4.925781 93.921875 -2.1875 C 85.085938 0.539062 75.898438 1.90625 66.359375 1.90625 Z M 66.359375 1.90625 "/></g></g></g></g><g fill="#e6e6fa" fill-opacity="1"><g transform="translate(1026.938739, 193.498965)"><g><path d="M 15.828125 -126.8125 L 0 -126.8125 L 43.859375 -170.875 C 43.859375 -163.238281 43.828125 -156.050781 43.765625 -149.3125 C 43.703125 -142.582031 43.671875 -136.035156 43.671875 -129.671875 L 63.5 -129.671875 L 63.5 -126.8125 L 43.671875 -126.8125 C 43.671875 -116.394531 43.640625 -106.226562 43.578125 -96.3125 C 43.515625 -86.394531 43.484375 -76.09375 43.484375 -65.40625 C 43.484375 -54.726562 43.484375 -43.035156 43.484375 -30.328125 C 43.484375 -27.273438 43.832031 -24.378906 44.53125 -21.640625 C 45.226562 -18.910156 46.53125 -16.6875 48.4375 -14.96875 C 50.34375 -13.25 53.203125 -12.390625 57.015625 -12.390625 C 58.796875 -12.390625 60.476562 -12.515625 62.0625 -12.765625 C 63.65625 -13.023438 65.15625 -13.410156 66.5625 -13.921875 L 66.9375 -12.96875 C 64.132812 -11.3125 60.828125 -9.304688 57.015625 -6.953125 C 53.203125 -4.609375 49.609375 -2.546875 46.234375 -0.765625 C 42.867188 1.015625 40.234375 1.90625 38.328125 1.90625 C 33.367188 1.90625 29.203125 0.765625 25.828125 -1.515625 C 22.460938 -3.804688 19.953125 -6.734375 18.296875 -10.296875 C 16.648438 -13.859375 15.828125 -17.546875 15.828125 -21.359375 Z M 15.828125 -126.8125 "/></g></g></g><g fill="#e6e6fa" fill-opacity="1"><g transform="translate(1084.33938, 193.498965)"><g><path d="M 63.3125 1.90625 C 53.394531 1.90625 44.367188 -0.507812 36.234375 -5.34375 C 28.097656 -10.175781 21.613281 -17.515625 16.78125 -27.359375 C 11.945312 -37.210938 9.53125 -49.707031 9.53125 -64.84375 C 9.53125 -79.96875 11.878906 -92.457031 16.578125 -102.3125 C 21.285156 -112.164062 27.675781 -119.503906 35.75 -124.328125 C 43.820312 -129.160156 53.007812 -131.578125 63.3125 -131.578125 C 73.226562 -131.578125 82.253906 -129.160156 90.390625 -124.328125 C 98.523438 -119.503906 105.039062 -112.164062 109.9375 -102.3125 C 114.832031 -92.457031 117.28125 -79.96875 117.28125 -64.84375 C 117.28125 -49.707031 114.863281 -37.210938 110.03125 -27.359375 C 105.195312 -17.515625 98.710938 -10.175781 90.578125 -5.34375 C 82.441406 -0.507812 73.351562 1.90625 63.3125 1.90625 Z M 48.8125 -126.8125 C 43.726562 -125.539062 39.753906 -121.597656 36.890625 -114.984375 C 34.035156 -108.378906 32.445312 -100.085938 32.125 -90.109375 C 31.8125 -80.128906 32.988281 -69.414062 35.65625 -57.96875 C 38.332031 -46.65625 42.050781 -36.613281 46.8125 -27.84375 C 51.582031 -19.070312 56.734375 -12.425781 62.265625 -7.90625 C 67.796875 -3.394531 73.101562 -1.773438 78.1875 -3.046875 C 83.394531 -4.316406 87.429688 -8.257812 90.296875 -14.875 C 93.160156 -21.488281 94.75 -29.785156 95.0625 -39.765625 C 95.382812 -49.742188 94.207031 -60.390625 91.53125 -71.703125 C 89.5 -80.222656 86.894531 -88.039062 83.71875 -95.15625 C 80.539062 -102.28125 76.976562 -108.382812 73.03125 -113.46875 C 69.09375 -118.550781 65.023438 -122.300781 60.828125 -124.71875 C 56.640625 -127.132812 52.632812 -127.832031 48.8125 -126.8125 Z M 48.8125 -126.8125 "/></g></g></g><g fill="#e6e6fa" fill-opacity="1"><g transform="translate(1211.154966, 193.498965)"><g><path d="M 0 -117.859375 C 4.707031 -118.492188 9.601562 -119.507812 14.6875 -120.90625 C 19.769531 -122.300781 24.628906 -123.953125 29.265625 -125.859375 C 33.910156 -127.765625 37.882812 -129.671875 41.1875 -131.578125 L 41.1875 -90.578125 C 42.207031 -95.035156 43.765625 -99.644531 45.859375 -104.40625 C 47.960938 -109.175781 50.695312 -113.625 54.0625 -117.75 C 57.4375 -121.882812 61.472656 -125.222656 66.171875 -127.765625 C 70.878906 -130.304688 76.347656 -131.578125 82.578125 -131.578125 C 90.328125 -131.578125 96.8125 -129.988281 102.03125 -126.8125 L 91.921875 -101.828125 C 88.609375 -103.484375 85.171875 -104.914062 81.609375 -106.125 C 78.054688 -107.332031 74.117188 -107.9375 69.796875 -107.9375 C 64.835938 -107.9375 60.195312 -106.632812 55.875 -104.03125 C 51.550781 -101.425781 48.019531 -97.675781 45.28125 -92.78125 C 42.550781 -87.882812 41.1875 -82.003906 41.1875 -75.140625 L 41.1875 0 L 13.546875 0 L 13.546875 -104.5 C 13.546875 -109.71875 12.460938 -113.085938 10.296875 -114.609375 C 8.140625 -116.140625 4.707031 -116.90625 0 -116.90625 Z M 0 -117.859375 "/></g></g></g><g fill="#e6e6fa" fill-opacity="1"><g transform="translate(1303.644351, 193.498965)"><g><path d="M 74.1875 1.90625 C 65.28125 1.90625 56.945312 0.285156 49.1875 -2.953125 C 41.4375 -6.191406 34.570312 -10.765625 28.59375 -16.671875 C 22.625 -22.585938 17.953125 -29.488281 14.578125 -37.375 C 11.210938 -45.257812 9.53125 -53.78125 9.53125 -62.9375 C 9.53125 -71.832031 10.707031 -80.378906 13.0625 -88.578125 C 15.414062 -96.773438 19.070312 -104.113281 24.03125 -110.59375 C 28.988281 -117.082031 35.40625 -122.203125 43.28125 -125.953125 C 51.164062 -129.703125 60.640625 -131.578125 71.703125 -131.578125 C 81.109375 -131.578125 89.304688 -129.957031 96.296875 -126.71875 C 103.296875 -123.476562 108.734375 -119.28125 112.609375 -114.125 C 116.484375 -108.976562 118.421875 -103.484375 118.421875 -97.640625 C 118.421875 -91.921875 116.925781 -87.3125 113.9375 -83.8125 C 110.957031 -80.3125 107.050781 -77.320312 102.21875 -74.84375 C 97.382812 -72.363281 92.296875 -69.851562 86.953125 -67.3125 C 80.859375 -64.394531 74.820312 -61.410156 68.84375 -58.359375 C 62.863281 -55.304688 57.457031 -52.507812 52.625 -49.96875 C 47.800781 -47.425781 43.988281 -45.390625 41.1875 -43.859375 C 46.019531 -37.628906 51.992188 -32.671875 59.109375 -28.984375 C 66.234375 -25.296875 74.242188 -23.453125 83.140625 -23.453125 C 90.265625 -23.453125 97.097656 -24.914062 103.640625 -27.84375 C 110.191406 -30.769531 115.3125 -34.582031 119 -39.28125 L 119.953125 -39.28125 L 109.078125 -5.15625 C 103.992188 -2.601562 98.429688 -0.789062 92.390625 0.28125 C 86.359375 1.363281 80.289062 1.90625 74.1875 1.90625 Z M 57.59375 -126.0625 C 50.601562 -126.0625 44.847656 -124.21875 40.328125 -120.53125 C 35.816406 -116.84375 32.507812 -112.132812 30.40625 -106.40625 C 28.3125 -100.6875 27.265625 -94.710938 27.265625 -88.484375 C 27.265625 -71.953125 31.398438 -57.773438 39.671875 -45.953125 C 41.953125 -47.222656 45.160156 -49.160156 49.296875 -51.765625 C 53.429688 -54.378906 57.847656 -57.429688 62.546875 -60.921875 C 67.253906 -64.421875 71.769531 -68.203125 76.09375 -72.265625 C 80.414062 -76.335938 83.941406 -80.535156 86.671875 -84.859375 C 89.410156 -89.179688 90.78125 -93.441406 90.78125 -97.640625 C 90.78125 -100.179688 90.300781 -103.070312 89.34375 -106.3125 C 88.394531 -109.5625 86.710938 -112.675781 84.296875 -115.65625 C 81.878906 -118.644531 78.507812 -121.125 74.1875 -123.09375 C 69.863281 -125.070312 64.332031 -126.0625 57.59375 -126.0625 Z M 57.59375 -126.0625 "/></g></g></g></g></g></g><g clip-path="url(#87c306c2e4)"><g clip-path="url(#e7b084c18f)"><g transform="matrix(1, 0, 0, 1, 1343, 275)"><g clip-path="url(#080011c3f0)"><g clip-path="url(#8fe7bbb28e)"><g clip-path="url(#de15bce148)"><path fill="#5f5381" d="M 0.402344 0.550781 L 59.328125 0.550781 L 59.328125 59.476562 L 0.402344 59.476562 Z M 0.402344 0.550781 " fill-opacity="1" fill-rule="nonzero"/></g></g></g></g></g></g><g clip-path="url(#e839b49ee8)"><g transform="matrix(1, 0, 0, 1, 542, 276)"><g clip-path="url(#24b57f72c5)"><g clip-path="url(#34bcb7f1c6)"><g fill="#e6e6fa" fill-opacity="1"><g transform="translate(1.36618, 46.753679)"><g><path d="M 16.03125 0.6875 C 13.9375 0.6875 12.085938 0.347656 10.484375 -0.328125 C 8.890625 -1.015625 7.5 -1.941406 6.3125 -3.109375 C 5.132812 -4.273438 4.144531 -5.628906 3.34375 -7.171875 C 2.550781 -8.722656 1.910156 -10.363281 1.421875 -12.09375 C 0.929688 -13.820312 0.585938 -15.597656 0.390625 -17.421875 C 0.191406 -19.242188 0.09375 -21 0.09375 -22.6875 C 0.09375 -24.375 0.207031 -26.117188 0.4375 -27.921875 C 0.664062 -29.722656 1.03125 -31.488281 1.53125 -33.21875 C 2.039062 -34.945312 2.707031 -36.585938 3.53125 -38.140625 C 4.363281 -39.691406 5.367188 -41.050781 6.546875 -42.21875 C 7.722656 -43.394531 9.09375 -44.320312 10.65625 -45 C 12.226562 -45.6875 14.019531 -46.03125 16.03125 -46.03125 C 17.070312 -46.03125 18.109375 -45.882812 19.140625 -45.59375 C 20.179688 -45.3125 21.164062 -44.898438 22.09375 -44.359375 C 23.019531 -43.816406 23.867188 -43.171875 24.640625 -42.421875 C 25.410156 -41.679688 26.046875 -40.847656 26.546875 -39.921875 C 26.921875 -39.253906 27.195312 -38.535156 27.375 -37.765625 C 27.550781 -36.992188 27.640625 -36.175781 27.640625 -35.3125 C 27.640625 -34.707031 27.484375 -34.238281 27.171875 -33.90625 C 26.878906 -33.519531 26.523438 -33.242188 26.109375 -33.078125 C 25.742188 -32.878906 25.40625 -32.78125 25.09375 -32.78125 C 24.71875 -32.78125 24.347656 -32.890625 23.984375 -33.109375 C 23.617188 -33.335938 23.300781 -33.585938 23.03125 -33.859375 C 22.71875 -34.253906 22.5625 -34.738281 22.5625 -35.3125 C 22.5625 -36.351562 22.460938 -37.453125 22.265625 -38.609375 C 22.066406 -39.773438 21.710938 -40.84375 21.203125 -41.8125 C 20.691406 -42.78125 20.019531 -43.582031 19.1875 -44.21875 C 18.351562 -44.863281 17.300781 -45.1875 16.03125 -45.1875 C 14.882812 -45.1875 13.863281 -44.960938 12.96875 -44.515625 C 12.070312 -44.066406 11.28125 -43.445312 10.59375 -42.65625 C 9.90625 -41.875 9.3125 -40.957031 8.8125 -39.90625 C 8.3125 -38.863281 7.890625 -37.742188 7.546875 -36.546875 C 7.210938 -35.359375 6.941406 -34.128906 6.734375 -32.859375 C 6.523438 -31.597656 6.363281 -30.359375 6.25 -29.140625 C 6.132812 -27.921875 6.054688 -26.753906 6.015625 -25.640625 C 5.972656 -24.535156 5.953125 -23.550781 5.953125 -22.6875 C 5.953125 -21.59375 5.976562 -20.269531 6.03125 -18.71875 C 6.09375 -17.175781 6.234375 -15.570312 6.453125 -13.90625 C 6.679688 -12.238281 7.007812 -10.582031 7.4375 -8.9375 C 7.875 -7.300781 8.460938 -5.828125 9.203125 -4.515625 C 9.953125 -3.210938 10.882812 -2.15625 12 -1.34375 C 13.113281 -0.539062 14.457031 -0.140625 16.03125 -0.140625 C 17.144531 -0.140625 18.140625 -0.375 19.015625 -0.84375 C 19.898438 -1.3125 20.675781 -1.9375 21.34375 -2.71875 C 22.019531 -3.5 22.59375 -4.390625 23.0625 -5.390625 C 23.539062 -6.398438 23.929688 -7.445312 24.234375 -8.53125 C 24.546875 -9.613281 24.765625 -10.695312 24.890625 -11.78125 C 25.023438 -12.875 25.09375 -13.878906 25.09375 -14.796875 L 29.046875 -8.3125 C 28.117188 -6.570312 26.988281 -5 25.65625 -3.59375 C 24.320312 -2.195312 22.753906 -1.085938 20.953125 -0.265625 C 19.515625 0.367188 17.875 0.6875 16.03125 0.6875 Z M 16.03125 0.6875 "/></g></g></g></g><g fill="#e6e6fa" fill-opacity="1"><g transform="translate(46.074569, 46.753679)"><g><path d="M 25.328125 -30.203125 L 25.328125 -29.359375 C 24.847656 -29.359375 24.441406 -29.191406 24.109375 -28.859375 C 23.773438 -28.523438 23.507812 -28.164062 23.3125 -27.78125 C 23.007812 -27.125 22.835938 -26.113281 22.796875 -24.75 L 22.796875 0.171875 L 21.96875 0.171875 L 21.765625 -0.40625 C 21.671875 -0.769531 21.53125 -1.140625 21.34375 -1.515625 C 21.164062 -1.898438 20.953125 -2.257812 20.703125 -2.59375 C 20.453125 -2.9375 20.160156 -3.234375 19.828125 -3.484375 C 19.503906 -3.734375 19.140625 -3.894531 18.734375 -3.96875 C 18.179688 -2.394531 17.285156 -1.210938 16.046875 -0.421875 C 14.804688 0.359375 13.378906 0.75 11.765625 0.75 C 8.835938 0.75 6.5625 0.00390625 4.9375 -1.484375 C 3.3125 -2.972656 2.5 -5.15625 2.5 -8.03125 L 2.5 -9.90625 C 2.519531 -10.539062 2.53125 -11.242188 2.53125 -12.015625 C 2.53125 -12.796875 2.53125 -13.644531 2.53125 -14.5625 L 2.53125 -20.15625 C 2.53125 -21.09375 2.53125 -21.953125 2.53125 -22.734375 C 2.53125 -23.523438 2.539062 -24.25 2.5625 -24.90625 C 2.539062 -25.207031 2.507812 -25.566406 2.46875 -25.984375 C 2.4375 -26.410156 2.363281 -26.820312 2.25 -27.21875 C 2.132812 -27.625 1.96875 -27.992188 1.75 -28.328125 C 1.539062 -28.671875 1.273438 -28.921875 0.953125 -29.078125 C 0.566406 -29.265625 0.257812 -29.359375 0.03125 -29.359375 L 0.03125 -30.203125 L 10.15625 -30.203125 L 10.15625 -29.359375 C 9.96875 -29.359375 9.65625 -29.265625 9.21875 -29.078125 C 8.863281 -28.898438 8.582031 -28.625 8.375 -28.25 C 8.164062 -27.875 8.003906 -27.46875 7.890625 -27.03125 C 7.773438 -26.601562 7.703125 -26.171875 7.671875 -25.734375 C 7.640625 -25.296875 7.625 -24.910156 7.625 -24.578125 L 7.625 -8.03125 C 7.625 -7.226562 7.675781 -6.359375 7.78125 -5.421875 C 7.882812 -4.492188 8.101562 -3.632812 8.4375 -2.84375 C 8.78125 -2.0625 9.265625 -1.40625 9.890625 -0.875 C 10.515625 -0.351562 11.34375 -0.09375 12.375 -0.09375 C 13.71875 -0.09375 14.957031 -0.597656 16.09375 -1.609375 C 17.226562 -2.628906 17.796875 -3.640625 17.796875 -4.640625 L 17.796875 -8.0625 C 17.796875 -9.09375 17.789062 -10.179688 17.78125 -11.328125 C 17.769531 -12.472656 17.765625 -13.675781 17.765625 -14.9375 C 17.765625 -16.207031 17.765625 -17.398438 17.765625 -18.515625 C 17.765625 -19.640625 17.753906 -20.691406 17.734375 -21.671875 L 17.734375 -24.578125 C 17.734375 -24.910156 17.71875 -25.296875 17.6875 -25.734375 C 17.65625 -26.171875 17.582031 -26.601562 17.46875 -27.03125 C 17.351562 -27.46875 17.191406 -27.875 16.984375 -28.25 C 16.773438 -28.625 16.5 -28.898438 16.15625 -29.078125 C 15.707031 -29.265625 15.390625 -29.359375 15.203125 -29.359375 L 15.203125 -30.203125 Z M 25.328125 -30.203125 "/></g></g></g><g fill="#e6e6fa" fill-opacity="1"><g transform="translate(87.127095, 46.753679)"><g><path d="M 21.25 -23.953125 C 21.25 -22.679688 20.945312 -21.78125 20.34375 -21.25 C 19.75 -20.664062 19.117188 -20.375 18.453125 -20.375 C 17.773438 -20.375 17.128906 -20.609375 16.515625 -21.078125 C 15.921875 -21.535156 15.625 -22.28125 15.625 -23.3125 C 15.625 -24.289062 15.65625 -25.164062 15.71875 -25.9375 C 15.757812 -26.257812 15.78125 -26.554688 15.78125 -26.828125 C 15.78125 -27.097656 15.78125 -27.359375 15.78125 -27.609375 L 15.78125 -28.40625 C 15.738281 -28.925781 15.5625 -29.304688 15.25 -29.546875 C 14.945312 -29.785156 14.546875 -29.90625 14.046875 -29.90625 C 13.273438 -29.90625 12.585938 -29.578125 11.984375 -28.921875 C 11.378906 -28.273438 10.847656 -27.429688 10.390625 -26.390625 C 9.929688 -25.359375 9.535156 -24.195312 9.203125 -22.90625 C 8.878906 -21.625 8.609375 -20.347656 8.390625 -19.078125 C 8.171875 -17.816406 8.003906 -16.628906 7.890625 -15.515625 C 7.773438 -14.398438 7.695312 -13.507812 7.65625 -12.84375 L 7.65625 -5.0625 C 7.65625 -4.78125 7.675781 -4.425781 7.71875 -4 C 7.769531 -3.582031 7.851562 -3.164062 7.96875 -2.75 C 8.082031 -2.332031 8.242188 -1.957031 8.453125 -1.625 C 8.671875 -1.289062 8.941406 -1.046875 9.265625 -0.890625 C 9.628906 -0.703125 9.925781 -0.609375 10.15625 -0.609375 L 10.15625 0.265625 L 0.0625 0.265625 L 0.0625 -0.609375 C 0.5 -0.609375 0.890625 -0.757812 1.234375 -1.0625 C 1.578125 -1.375 1.847656 -1.71875 2.046875 -2.09375 C 2.347656 -2.726562 2.519531 -3.703125 2.5625 -5.015625 L 2.5625 -20.46875 C 2.539062 -21.695312 2.53125 -22.625 2.53125 -23.25 C 2.53125 -23.882812 2.53125 -24.242188 2.53125 -24.328125 C 2.53125 -25.078125 2.304688 -25.664062 1.859375 -26.09375 C 1.410156 -26.519531 0.8125 -26.734375 0.0625 -26.734375 L 0.0625 -27.578125 C 1.09375 -27.578125 2.125 -27.710938 3.15625 -27.984375 C 4.195312 -28.265625 5.09375 -28.78125 5.84375 -29.53125 C 6.050781 -29.707031 6.222656 -29.851562 6.359375 -29.96875 C 6.515625 -30.0625 6.671875 -30.109375 6.828125 -30.109375 L 7.65625 -30.109375 L 7.65625 -21.09375 C 7.8125 -21.75 7.992188 -22.460938 8.203125 -23.234375 C 8.410156 -24.015625 8.660156 -24.789062 8.953125 -25.5625 C 9.242188 -26.332031 9.578125 -27.0625 9.953125 -27.75 C 10.335938 -28.4375 10.78125 -29.019531 11.28125 -29.5 C 12.164062 -30.34375 13.347656 -30.765625 14.828125 -30.765625 C 16.992188 -30.765625 18.601562 -30.148438 19.65625 -28.921875 C 20.71875 -27.703125 21.25 -26.046875 21.25 -23.953125 Z M 21.25 -23.953125 "/></g></g></g><g fill="#e6e6fa" fill-opacity="1"><g transform="translate(124.063159, 46.753679)"><g><path d="M 21.1875 -0.375 C 21.050781 -0.738281 20.875 -1.113281 20.65625 -1.5 C 20.445312 -1.882812 20.203125 -2.226562 19.921875 -2.53125 C 19.648438 -2.84375 19.335938 -3.09375 18.984375 -3.28125 C 18.628906 -3.46875 18.234375 -3.5625 17.796875 -3.5625 C 17.296875 -2.582031 16.722656 -1.8125 16.078125 -1.25 C 15.429688 -0.6875 14.722656 -0.257812 13.953125 0.03125 C 13.191406 0.332031 12.375 0.523438 11.5 0.609375 C 10.625 0.703125 9.695312 0.75 8.71875 0.75 C 7.914062 0.75 7.117188 0.65625 6.328125 0.46875 C 5.546875 0.289062 4.804688 0.0195312 4.109375 -0.34375 C 3.421875 -0.707031 2.796875 -1.160156 2.234375 -1.703125 C 1.679688 -2.253906 1.210938 -2.90625 0.828125 -3.65625 C 0.335938 -4.65625 0.09375 -5.894531 0.09375 -7.375 C 0.09375 -8.3125 0.25 -9.15625 0.5625 -9.90625 C 0.875 -10.664062 1.296875 -11.351562 1.828125 -11.96875 C 2.359375 -12.582031 2.976562 -13.125 3.6875 -13.59375 C 4.394531 -14.070312 5.132812 -14.492188 5.90625 -14.859375 C 6.4375 -15.117188 6.972656 -15.375 7.515625 -15.625 C 8.066406 -15.875 8.625 -16.113281 9.1875 -16.34375 C 11.269531 -17.175781 13.0625 -18.097656 14.5625 -19.109375 C 16.132812 -20.148438 17.019531 -21.5625 17.21875 -23.34375 C 17.175781 -24.1875 17.066406 -25 16.890625 -25.78125 C 16.722656 -26.570312 16.453125 -27.269531 16.078125 -27.875 C 15.703125 -28.476562 15.195312 -28.96875 14.5625 -29.34375 C 13.925781 -29.71875 13.128906 -29.90625 12.171875 -29.90625 C 10.804688 -29.90625 9.738281 -29.601562 8.96875 -29 C 8.207031 -28.394531 7.691406 -27.421875 7.421875 -26.078125 C 7.328125 -25.503906 7.25 -24.898438 7.1875 -24.265625 C 7.132812 -23.628906 7.109375 -22.976562 7.109375 -22.3125 C 7.109375 -21.96875 7.039062 -21.640625 6.90625 -21.328125 C 6.769531 -21.023438 6.585938 -20.753906 6.359375 -20.515625 C 6.128906 -20.285156 5.859375 -20.101562 5.546875 -19.96875 C 5.242188 -19.84375 4.921875 -19.78125 4.578125 -19.78125 C 4.265625 -19.78125 3.953125 -19.847656 3.640625 -19.984375 C 3.335938 -20.128906 3.066406 -20.320312 2.828125 -20.5625 C 2.585938 -20.800781 2.394531 -21.070312 2.25 -21.375 C 2.113281 -21.6875 2.046875 -22 2.046875 -22.3125 C 2.046875 -23.613281 2.351562 -24.785156 2.96875 -25.828125 C 3.582031 -26.878906 4.375 -27.769531 5.34375 -28.5 C 6.3125 -29.226562 7.394531 -29.785156 8.59375 -30.171875 C 9.789062 -30.566406 10.984375 -30.765625 12.171875 -30.765625 C 13.671875 -30.765625 15.039062 -30.5625 16.28125 -30.15625 C 17.519531 -29.757812 18.578125 -29.171875 19.453125 -28.390625 C 20.335938 -27.617188 21.019531 -26.65625 21.5 -25.5 C 21.976562 -24.351562 22.21875 -23.03125 22.21875 -21.53125 L 22.21875 0.234375 L 21.390625 0.234375 Z M 17.21875 -20.671875 C 17.039062 -20.148438 16.75 -19.648438 16.34375 -19.171875 C 15.945312 -18.691406 15.503906 -18.242188 15.015625 -17.828125 C 14.523438 -17.421875 14.015625 -17.039062 13.484375 -16.6875 C 12.953125 -16.332031 12.457031 -16.007812 12 -15.71875 C 11.269531 -15.257812 10.503906 -14.75 9.703125 -14.1875 C 8.910156 -13.632812 8.175781 -13.019531 7.5 -12.34375 C 6.832031 -11.675781 6.28125 -10.941406 5.84375 -10.140625 C 5.414062 -9.347656 5.203125 -8.460938 5.203125 -7.484375 C 5.203125 -6.890625 5.242188 -6.269531 5.328125 -5.625 C 5.421875 -4.976562 5.570312 -4.359375 5.78125 -3.765625 C 6 -3.171875 6.289062 -2.617188 6.65625 -2.109375 C 7.019531 -1.609375 7.476562 -1.179688 8.03125 -0.828125 C 8.851562 -0.335938 9.671875 -0.09375 10.484375 -0.09375 C 11.210938 -0.09375 11.972656 -0.203125 12.765625 -0.421875 C 13.566406 -0.640625 14.296875 -0.96875 14.953125 -1.40625 C 15.617188 -1.851562 16.160156 -2.394531 16.578125 -3.03125 C 17.003906 -3.675781 17.21875 -4.421875 17.21875 -5.265625 Z M 17.21875 -20.671875 "/></g></g></g><g fill="#e6e6fa" fill-opacity="1"><g transform="translate(161.949183, 46.753679)"><g><path d="M 12.6875 -29.625 L 7.65625 -29.625 L 7.65625 -6.046875 C 7.65625 -5.242188 7.757812 -4.503906 7.96875 -3.828125 C 8.1875 -3.160156 8.5 -2.578125 8.90625 -2.078125 C 9.320312 -1.578125 9.84375 -1.175781 10.46875 -0.875 C 11.09375 -0.582031 11.804688 -0.414062 12.609375 -0.375 L 12.609375 0.453125 L 11.578125 0.453125 C 10.367188 0.453125 9.21875 0.367188 8.125 0.203125 C 7.039062 0.046875 6.085938 -0.257812 5.265625 -0.71875 C 4.441406 -1.175781 3.785156 -1.832031 3.296875 -2.6875 C 2.804688 -3.539062 2.5625 -4.660156 2.5625 -6.046875 L 2.5625 -23.453125 C 2.5625 -24.546875 2.5625 -25.601562 2.5625 -26.625 C 2.5625 -27.644531 2.570312 -28.644531 2.59375 -29.625 L 0 -29.625 L 0 -30.453125 C 1.09375 -30.453125 2.0625 -30.554688 2.90625 -30.765625 C 3.75 -30.984375 4.457031 -31.332031 5.03125 -31.8125 C 5.613281 -32.289062 6.050781 -32.910156 6.34375 -33.671875 C 6.644531 -34.441406 6.796875 -35.382812 6.796875 -36.5 L 7.65625 -36.5 L 7.65625 -30.453125 L 12.6875 -30.453125 Z M 12.6875 -29.625 "/></g></g></g><g fill="#e6e6fa" fill-opacity="1"><g transform="translate(190.393271, 46.753679)"><g><path d="M 7.421875 -36.09375 C 7.421875 -35.65625 7.332031 -35.238281 7.15625 -34.84375 C 6.988281 -34.445312 6.757812 -34.101562 6.46875 -33.8125 C 6.1875 -33.53125 5.847656 -33.300781 5.453125 -33.125 C 5.054688 -32.957031 4.640625 -32.875 4.203125 -32.875 C 3.765625 -32.875 3.347656 -32.957031 2.953125 -33.125 C 2.554688 -33.300781 2.210938 -33.53125 1.921875 -33.8125 C 1.640625 -34.101562 1.410156 -34.445312 1.234375 -34.84375 C 1.066406 -35.238281 0.984375 -35.65625 0.984375 -36.09375 C 0.984375 -36.539062 1.066406 -36.957031 1.234375 -37.34375 C 1.410156 -37.738281 1.640625 -38.078125 1.921875 -38.359375 C 2.210938 -38.648438 2.554688 -38.882812 2.953125 -39.0625 C 3.347656 -39.238281 3.765625 -39.328125 4.203125 -39.328125 C 4.640625 -39.328125 5.054688 -39.238281 5.453125 -39.0625 C 5.847656 -38.882812 6.1875 -38.648438 6.46875 -38.359375 C 6.757812 -38.078125 6.988281 -37.738281 7.15625 -37.34375 C 7.332031 -36.957031 7.421875 -36.539062 7.421875 -36.09375 Z M 0.109375 -0.03125 L 0.109375 -0.890625 C 0.328125 -0.890625 0.632812 -0.976562 1.03125 -1.15625 C 1.363281 -1.320312 1.628906 -1.570312 1.828125 -1.90625 C 2.023438 -2.25 2.179688 -2.609375 2.296875 -2.984375 C 2.410156 -3.367188 2.492188 -3.769531 2.546875 -4.1875 C 2.597656 -4.601562 2.628906 -4.960938 2.640625 -5.265625 C 2.628906 -6.265625 2.625 -7.375 2.625 -8.59375 C 2.625 -9.8125 2.625 -11.160156 2.625 -12.640625 C 2.625 -14.128906 2.625 -15.539062 2.625 -16.875 C 2.625 -18.21875 2.613281 -19.5 2.59375 -20.71875 L 2.59375 -24.609375 C 2.59375 -25.335938 2.363281 -25.914062 1.90625 -26.34375 C 1.457031 -26.78125 0.867188 -27 0.140625 -27 L 0.140625 -27.859375 C 1.179688 -27.859375 2.210938 -28 3.234375 -28.28125 C 4.265625 -28.5625 5.15625 -29.078125 5.90625 -29.828125 C 6.113281 -29.992188 6.285156 -30.132812 6.421875 -30.25 C 6.578125 -30.34375 6.726562 -30.390625 6.875 -30.390625 L 7.71875 -30.390625 L 7.71875 -5.5 C 7.71875 -5.1875 7.734375 -4.8125 7.765625 -4.375 C 7.804688 -3.945312 7.882812 -3.519531 8 -3.09375 C 8.113281 -2.664062 8.269531 -2.273438 8.46875 -1.921875 C 8.675781 -1.578125 8.953125 -1.332031 9.296875 -1.1875 C 9.679688 -0.988281 10 -0.890625 10.25 -0.890625 L 10.25 -0.03125 Z M 0.109375 -0.03125 "/></g></g></g><g fill="#e6e6fa" fill-opacity="1"><g transform="translate(216.275363, 46.753679)"><g><path d="M 15.171875 -0.640625 C 15.285156 -0.640625 15.414062 -0.660156 15.5625 -0.703125 C 15.707031 -0.753906 15.882812 -0.828125 16.09375 -0.921875 C 16.4375 -1.097656 16.707031 -1.363281 16.90625 -1.71875 C 17.113281 -2.070312 17.273438 -2.457031 17.390625 -2.875 C 17.503906 -3.300781 17.578125 -3.726562 17.609375 -4.15625 C 17.648438 -4.59375 17.671875 -4.972656 17.671875 -5.296875 L 17.671875 -21.421875 C 17.671875 -21.972656 17.648438 -22.625 17.609375 -23.375 C 17.578125 -24.125 17.476562 -24.878906 17.3125 -25.640625 C 17.144531 -26.410156 16.910156 -27.117188 16.609375 -27.765625 C 16.304688 -28.421875 15.882812 -28.925781 15.34375 -29.28125 C 14.6875 -29.71875 14.070312 -29.9375 13.5 -29.9375 C 12.632812 -29.9375 11.851562 -29.691406 11.15625 -29.203125 C 10.46875 -28.710938 9.867188 -28.09375 9.359375 -27.34375 C 8.859375 -26.59375 8.453125 -25.785156 8.140625 -24.921875 C 7.835938 -24.066406 7.640625 -23.265625 7.546875 -22.515625 L 7.515625 -5.234375 C 7.515625 -4.890625 7.53125 -4.503906 7.5625 -4.078125 C 7.601562 -3.660156 7.679688 -3.242188 7.796875 -2.828125 C 7.910156 -2.421875 8.070312 -2.046875 8.28125 -1.703125 C 8.5 -1.359375 8.78125 -1.097656 9.125 -0.921875 C 9.488281 -0.734375 9.796875 -0.640625 10.046875 -0.640625 L 10.046875 0.234375 L -0.09375 0.234375 L -0.09375 -0.640625 C 0.394531 -0.640625 0.796875 -0.789062 1.109375 -1.09375 C 1.421875 -1.394531 1.6875 -1.738281 1.90625 -2.125 C 2.207031 -2.738281 2.390625 -3.707031 2.453125 -5.03125 C 2.453125 -6.007812 2.453125 -7.109375 2.453125 -8.328125 C 2.453125 -9.546875 2.441406 -10.90625 2.421875 -12.40625 L 2.421875 -24.328125 C 2.421875 -25.054688 2.1875 -25.640625 1.71875 -26.078125 C 1.257812 -26.515625 0.664062 -26.734375 -0.0625 -26.734375 L -0.0625 -27.609375 C 0.53125 -27.609375 1.082031 -27.632812 1.59375 -27.6875 C 2.101562 -27.75 2.59375 -27.847656 3.0625 -27.984375 C 3.53125 -28.128906 3.976562 -28.328125 4.40625 -28.578125 C 4.84375 -28.828125 5.285156 -29.15625 5.734375 -29.5625 C 5.847656 -29.675781 5.992188 -29.800781 6.171875 -29.9375 C 6.359375 -30.070312 6.523438 -30.140625 6.671875 -30.140625 L 7.546875 -30.140625 L 7.546875 -25.640625 C 7.796875 -26.367188 8.128906 -27.046875 8.546875 -27.671875 C 8.972656 -28.296875 9.46875 -28.835938 10.03125 -29.296875 C 10.59375 -29.765625 11.21875 -30.125 11.90625 -30.375 C 12.601562 -30.632812 13.347656 -30.765625 14.140625 -30.765625 C 15.597656 -30.765625 16.867188 -30.53125 17.953125 -30.0625 C 19.035156 -29.59375 19.9375 -28.941406 20.65625 -28.109375 C 21.375 -27.273438 21.910156 -26.285156 22.265625 -25.140625 C 22.617188 -24.003906 22.796875 -22.765625 22.796875 -21.421875 L 22.796875 -19.609375 C 22.796875 -18.992188 22.789062 -18.316406 22.78125 -17.578125 C 22.769531 -16.835938 22.765625 -16.023438 22.765625 -15.140625 L 22.765625 -5.0625 C 22.765625 -4.757812 22.785156 -4.398438 22.828125 -3.984375 C 22.878906 -3.578125 22.960938 -3.175781 23.078125 -2.78125 C 23.203125 -2.382812 23.363281 -2.019531 23.5625 -1.6875 C 23.757812 -1.351562 24.023438 -1.097656 24.359375 -0.921875 C 24.796875 -0.734375 25.101562 -0.640625 25.28125 -0.640625 L 25.28125 0.203125 L 15.171875 0.203125 Z M 15.171875 -0.640625 "/></g></g></g><g fill="#e6e6fa" fill-opacity="1"><g transform="translate(257.385463, 46.753679)"><g><path d="M 19.921875 -29.5625 C 19.628906 -30.019531 19.300781 -30.46875 18.9375 -30.90625 C 18.570312 -31.351562 18.164062 -31.75 17.71875 -32.09375 C 17.269531 -32.4375 16.789062 -32.71875 16.28125 -32.9375 C 15.769531 -33.164062 15.226562 -33.28125 14.65625 -33.28125 C 14.269531 -33.28125 13.734375 -33.144531 13.046875 -32.875 C 12.347656 -32.601562 11.875 -31.898438 11.625 -30.765625 L 11.75 -30.765625 C 12.988281 -30.765625 14.414062 -30.5 16.03125 -29.96875 C 17.6875 -29.40625 19.164062 -28.242188 20.46875 -26.484375 C 21.726562 -24.710938 22.410156 -22.015625 22.515625 -18.390625 C 22.492188 -17.429688 22.410156 -16.476562 22.265625 -15.53125 C 22.117188 -14.582031 21.882812 -13.675781 21.5625 -12.8125 C 21.238281 -11.945312 20.800781 -11.128906 20.25 -10.359375 C 19.707031 -9.597656 19.03125 -8.914062 18.21875 -8.3125 C 17.21875 -7.582031 16.101562 -7.015625 14.875 -6.609375 C 13.65625 -6.210938 12.421875 -6.015625 11.171875 -6.015625 C 10.078125 -6.015625 8.992188 -6.160156 7.921875 -6.453125 C 6.859375 -6.753906 5.867188 -7.1875 4.953125 -7.75 C 4.640625 -7.644531 4.328125 -7.515625 4.015625 -7.359375 C 3.710938 -7.210938 3.429688 -7.023438 3.171875 -6.796875 C 2.921875 -6.566406 2.710938 -6.304688 2.546875 -6.015625 C 2.378906 -5.722656 2.296875 -5.40625 2.296875 -5.0625 C 2.296875 -4.78125 2.421875 -4.546875 2.671875 -4.359375 C 2.921875 -4.179688 3.207031 -4.039062 3.53125 -3.9375 C 3.863281 -3.84375 4.207031 -3.769531 4.5625 -3.71875 C 4.914062 -3.675781 5.191406 -3.644531 5.390625 -3.625 C 5.847656 -3.582031 6.332031 -3.539062 6.84375 -3.5 C 7.363281 -3.46875 7.921875 -3.429688 8.515625 -3.390625 C 10.078125 -3.316406 11.644531 -3.195312 13.21875 -3.03125 C 14.789062 -2.875 16.316406 -2.535156 17.796875 -2.015625 C 19.265625 -1.492188 20.425781 -0.75 21.28125 0.21875 C 22.132812 1.1875 22.5625 2.484375 22.5625 4.109375 C 22.5625 5.515625 22.1875 6.703125 21.4375 7.671875 C 20.695312 8.640625 19.753906 9.421875 18.609375 10.015625 C 17.460938 10.609375 16.226562 11.039062 14.90625 11.3125 C 13.582031 11.582031 12.347656 11.71875 11.203125 11.71875 C 10.253906 11.71875 9.207031 11.632812 8.0625 11.46875 C 6.925781 11.300781 5.828125 11.015625 4.765625 10.609375 C 3.710938 10.210938 2.769531 9.671875 1.9375 8.984375 C 1.101562 8.304688 0.523438 7.453125 0.203125 6.421875 C 0.128906 6.128906 0.09375 5.820312 0.09375 5.5 C 0.09375 5.15625 0.148438 4.832031 0.265625 4.53125 C 0.390625 4.238281 0.554688 3.972656 0.765625 3.734375 C 0.984375 3.503906 1.238281 3.320312 1.53125 3.1875 C 1.832031 3.0625 2.15625 3 2.5 3 C 3.195312 3 3.789062 3.226562 4.28125 3.6875 C 4.78125 4.144531 5.03125 4.726562 5.03125 5.4375 C 5.03125 6.53125 5.171875 7.429688 5.453125 8.140625 C 5.734375 8.859375 6.132812 9.414062 6.65625 9.8125 C 7.1875 10.21875 7.832031 10.5 8.59375 10.65625 C 9.351562 10.820312 10.222656 10.90625 11.203125 10.90625 C 12.117188 10.90625 12.976562 10.789062 13.78125 10.5625 C 14.59375 10.332031 15.289062 9.988281 15.875 9.53125 C 16.457031 9.070312 16.921875 8.484375 17.265625 7.765625 C 17.617188 7.054688 17.796875 6.210938 17.796875 5.234375 C 17.796875 4.359375 17.613281 3.632812 17.25 3.0625 C 16.894531 2.5 16.4375 2.046875 15.875 1.703125 C 15.3125 1.367188 14.671875 1.125 13.953125 0.96875 C 13.242188 0.820312 12.523438 0.71875 11.796875 0.65625 C 10.671875 0.5625 9.53125 0.503906 8.375 0.484375 C 7.9375 0.460938 7.457031 0.441406 6.9375 0.421875 C 6.414062 0.410156 5.894531 0.378906 5.375 0.328125 C 4.863281 0.285156 4.351562 0.21875 3.84375 0.125 C 3.332031 0.0390625 2.867188 -0.0664062 2.453125 -0.203125 C 1.609375 -0.472656 0.953125 -0.859375 0.484375 -1.359375 C 0.0234375 -1.867188 -0.203125 -2.585938 -0.203125 -3.515625 C -0.203125 -4.835938 0.179688 -5.914062 0.953125 -6.75 C 1.734375 -7.582031 2.738281 -8.144531 3.96875 -8.4375 C 3.1875 -9.03125 2.53125 -9.703125 2 -10.453125 C 1.46875 -11.210938 1.039062 -12.023438 0.71875 -12.890625 C 0.394531 -13.753906 0.160156 -14.648438 0.015625 -15.578125 C -0.128906 -16.515625 -0.203125 -17.453125 -0.203125 -18.390625 C -0.203125 -19.910156 -0.0507812 -21.332031 0.25 -22.65625 C 0.5625 -23.976562 1.054688 -25.164062 1.734375 -26.21875 C 2.421875 -27.28125 3.300781 -28.179688 4.375 -28.921875 C 5.445312 -29.660156 6.753906 -30.191406 8.296875 -30.515625 C 9.253906 -30.679688 10.066406 -30.765625 10.734375 -30.765625 C 10.847656 -31.554688 11.144531 -32.210938 11.625 -32.734375 C 12.101562 -33.265625 12.671875 -33.695312 13.328125 -34.03125 C 13.992188 -34.375 14.710938 -34.613281 15.484375 -34.75 C 16.253906 -34.894531 16.972656 -34.96875 17.640625 -34.96875 C 18.296875 -34.96875 19.316406 -34.851562 20.703125 -34.625 C 22.078125 -34.4375 23.300781 -33.535156 24.375 -31.921875 C 24.664062 -31.441406 24.8125 -30.972656 24.8125 -30.515625 C 24.8125 -29.835938 24.570312 -29.265625 24.09375 -28.796875 C 23.613281 -28.328125 23.035156 -28.09375 22.359375 -28.09375 C 22.117188 -28.09375 21.75 -28.179688 21.25 -28.359375 C 20.769531 -28.492188 20.328125 -28.894531 19.921875 -29.5625 Z M 17.390625 -18.390625 C 17.390625 -19.210938 17.347656 -20.097656 17.265625 -21.046875 C 17.191406 -22.003906 17.039062 -22.941406 16.8125 -23.859375 C 16.582031 -24.785156 16.265625 -25.664062 15.859375 -26.5 C 15.453125 -27.332031 14.925781 -28.046875 14.28125 -28.640625 C 13.351562 -29.503906 12.316406 -29.9375 11.171875 -29.9375 C 10.441406 -29.9375 9.785156 -29.789062 9.203125 -29.5 C 8.628906 -29.21875 8.125 -28.835938 7.6875 -28.359375 C 7.25 -27.890625 6.867188 -27.359375 6.546875 -26.765625 C 6.234375 -26.171875 5.96875 -25.566406 5.75 -24.953125 C 5.195312 -23.304688 4.921875 -21.117188 4.921875 -18.390625 C 4.921875 -15.742188 5.265625 -13.566406 5.953125 -11.859375 C 6.648438 -10.148438 7.488281 -8.894531 8.46875 -8.09375 C 9.445312 -7.28125 10.347656 -6.875 11.171875 -6.875 C 11.972656 -6.875 12.863281 -7.304688 13.84375 -8.171875 C 14.53125 -8.785156 15.097656 -9.492188 15.546875 -10.296875 C 16.003906 -11.109375 16.367188 -11.96875 16.640625 -12.875 C 16.910156 -13.789062 17.101562 -14.722656 17.21875 -15.671875 C 17.332031 -16.617188 17.390625 -17.523438 17.390625 -18.390625 Z M 17.390625 -18.390625 "/></g></g></g><g fill="#e6e6fa" fill-opacity="1"><g transform="translate(298.351621, 46.753679)"><g/></g></g><g fill="#e6e6fa" fill-opacity="1"><g transform="translate(324.118584, 46.753679)"><g><path d="M 13.84375 -44.703125 C 13.632812 -44.703125 13.242188 -44.566406 12.671875 -44.296875 C 12.109375 -44.023438 11.6875 -43.617188 11.40625 -43.078125 C 11.132812 -42.546875 11 -41.972656 11 -41.359375 C 11 -41.148438 11.003906 -40.925781 11.015625 -40.6875 C 11.035156 -40.445312 11.078125 -40.191406 11.140625 -39.921875 L 20.03125 -1.359375 L 27.265625 -36.953125 C 27.160156 -37.378906 27.070312 -37.753906 27 -38.078125 C 26.925781 -38.410156 26.859375 -38.707031 26.796875 -38.96875 C 26.640625 -39.800781 26.332031 -40.601562 25.875 -41.375 C 25.414062 -42.15625 24.859375 -42.804688 24.203125 -43.328125 C 22.992188 -44.242188 21.910156 -44.703125 20.953125 -44.703125 L 20.953125 -45.5625 L 34.75 -45.5625 L 34.75 -44.703125 C 34.550781 -44.703125 34.164062 -44.566406 33.59375 -44.296875 C 33.039062 -44.023438 32.617188 -43.613281 32.328125 -43.0625 C 32.035156 -42.519531 31.890625 -41.953125 31.890625 -41.359375 C 31.890625 -40.921875 31.945312 -40.441406 32.0625 -39.921875 L 40.96875 -1.359375 L 48.046875 -36.296875 L 48.015625 -36.296875 C 48.191406 -37.273438 48.28125 -38.160156 48.28125 -38.953125 C 48.28125 -40.421875 47.921875 -41.753906 47.203125 -42.953125 C 46.515625 -44.140625 45.394531 -44.734375 43.84375 -44.734375 L 43.84375 -45.5625 L 55.390625 -45.5625 L 55.390625 -44.734375 C 54.921875 -44.734375 54.46875 -44.628906 54.03125 -44.421875 C 53.601562 -44.222656 53.195312 -43.972656 52.8125 -43.671875 C 52.4375 -43.378906 52.082031 -43.046875 51.75 -42.671875 C 51.425781 -42.296875 51.148438 -41.9375 50.921875 -41.59375 C 50.210938 -40.5 49.609375 -39.097656 49.109375 -37.390625 C 48.796875 -35.878906 48.457031 -34.222656 48.09375 -32.421875 C 47.726562 -30.628906 47.328125 -28.6875 46.890625 -26.59375 C 46.453125 -24.5 46.019531 -22.4375 45.59375 -20.40625 C 45.175781 -18.375 44.753906 -16.34375 44.328125 -14.3125 C 43.910156 -12.269531 43.519531 -10.40625 43.15625 -8.71875 C 42.800781 -7.03125 42.492188 -5.492188 42.234375 -4.109375 L 41.359375 0.03125 L 35.78125 0.03125 C 35.738281 -0.21875 35.582031 -0.921875 35.3125 -2.078125 C 35.050781 -3.242188 34.671875 -4.894531 34.171875 -7.03125 C 33.078125 -11.707031 31.992188 -16.367188 30.921875 -21.015625 C 29.859375 -25.660156 28.789062 -30.320312 27.71875 -35 C 26.6875 -30.164062 25.675781 -25.359375 24.6875 -20.578125 C 23.695312 -15.804688 22.710938 -10.988281 21.734375 -6.125 L 20.4375 0.03125 L 14.875 0.03125 C 14.84375 -0.164062 14.710938 -0.738281 14.484375 -1.6875 C 14.253906 -2.632812 13.945312 -3.972656 13.5625 -5.703125 C 12.5625 -9.921875 11.582031 -14.117188 10.625 -18.296875 C 9.664062 -22.484375 8.707031 -26.691406 7.75 -30.921875 C 7.269531 -32.953125 6.867188 -34.660156 6.546875 -36.046875 C 6.234375 -37.441406 5.976562 -38.539062 5.78125 -39.34375 C 5.320312 -41.050781 4.488281 -42.378906 3.28125 -43.328125 C 2.070312 -44.242188 1 -44.703125 0.0625 -44.703125 L 0.0625 -45.5625 L 13.84375 -45.5625 Z M 13.84375 -44.703125 "/></g></g></g><g fill="#e6e6fa" fill-opacity="1"><g transform="translate(395.19527, 46.753679)"><g><path d="M 14.703125 -29.9375 C 13.921875 -29.9375 13.175781 -29.769531 12.46875 -29.4375 C 11.757812 -29.113281 11.109375 -28.691406 10.515625 -28.171875 C 9.929688 -27.660156 9.40625 -27.070312 8.9375 -26.40625 C 8.46875 -25.75 8.070312 -25.082031 7.75 -24.40625 L 7.75 -4.34375 C 7.757812 -4.09375 7.796875 -3.789062 7.859375 -3.4375 C 7.929688 -3.082031 8.03125 -2.734375 8.15625 -2.390625 C 8.28125 -2.046875 8.441406 -1.738281 8.640625 -1.46875 C 8.847656 -1.195312 9.097656 -1.003906 9.390625 -0.890625 C 9.734375 -0.722656 10.007812 -0.640625 10.21875 -0.640625 L 10.21875 0.203125 L 0.09375 0.203125 L 0.09375 -0.640625 C 0.550781 -0.640625 0.957031 -0.8125 1.3125 -1.15625 C 1.664062 -1.5 1.9375 -1.863281 2.125 -2.25 C 2.457031 -2.9375 2.625 -3.988281 2.625 -5.40625 L 2.625 -39.609375 C 2.625 -39.910156 2.550781 -40.210938 2.40625 -40.515625 C 2.257812 -40.816406 2.082031 -41.070312 1.875 -41.28125 C 1.394531 -41.757812 0.816406 -42 0.140625 -42 L 0.140625 -42.859375 C 1.203125 -42.859375 2.238281 -42.992188 3.25 -43.265625 C 4.269531 -43.535156 5.164062 -44.050781 5.9375 -44.8125 C 6.144531 -44.988281 6.316406 -45.132812 6.453125 -45.25 C 6.597656 -45.34375 6.75 -45.390625 6.90625 -45.390625 L 7.75 -45.390625 L 7.75 -25.59375 C 8.09375 -26.457031 8.582031 -27.257812 9.21875 -28 C 9.863281 -28.738281 10.582031 -29.351562 11.375 -29.84375 C 12.332031 -30.457031 13.441406 -30.765625 14.703125 -30.765625 L 15.3125 -30.765625 C 16.289062 -30.765625 17.160156 -30.675781 17.921875 -30.5 C 18.691406 -30.332031 19.378906 -30.050781 19.984375 -29.65625 C 20.585938 -29.269531 21.125 -28.765625 21.59375 -28.140625 C 22.070312 -27.515625 22.492188 -26.75 22.859375 -25.84375 C 23.492188 -24.238281 23.8125 -21.96875 23.8125 -19.03125 L 23.8125 -17.703125 C 23.789062 -17.265625 23.78125 -16.757812 23.78125 -16.1875 C 23.78125 -15.625 23.78125 -15.003906 23.78125 -14.328125 L 23.78125 -10.1875 C 23.78125 -9.09375 23.78125 -8.113281 23.78125 -7.25 C 23.78125 -6.382812 23.769531 -5.640625 23.75 -5.015625 C 23.769531 -4.722656 23.800781 -4.367188 23.84375 -3.953125 C 23.894531 -3.546875 23.976562 -3.140625 24.09375 -2.734375 C 24.207031 -2.328125 24.367188 -1.960938 24.578125 -1.640625 C 24.796875 -1.316406 25.054688 -1.078125 25.359375 -0.921875 C 25.722656 -0.734375 26.03125 -0.640625 26.28125 -0.640625 L 26.28125 0.203125 L 16.15625 0.203125 L 16.15625 -0.640625 C 16.632812 -0.640625 17.039062 -0.804688 17.375 -1.140625 C 17.707031 -1.472656 17.96875 -1.832031 18.15625 -2.21875 C 18.488281 -2.882812 18.664062 -3.878906 18.6875 -5.203125 L 18.6875 -19.03125 C 18.6875 -19.414062 18.679688 -19.914062 18.671875 -20.53125 C 18.660156 -21.15625 18.628906 -21.832031 18.578125 -22.5625 C 18.535156 -23.289062 18.457031 -24.046875 18.34375 -24.828125 C 18.238281 -25.609375 18.085938 -26.328125 17.890625 -26.984375 C 17.703125 -27.648438 17.457031 -28.226562 17.15625 -28.71875 C 16.863281 -29.207031 16.5 -29.523438 16.0625 -29.671875 C 15.601562 -29.847656 15.148438 -29.9375 14.703125 -29.9375 Z M 14.703125 -29.9375 "/></g></g></g><g fill="#e6e6fa" fill-opacity="1"><g transform="translate(437.140165, 46.753679)"><g><path d="M 21.1875 -0.375 C 21.050781 -0.738281 20.875 -1.113281 20.65625 -1.5 C 20.445312 -1.882812 20.203125 -2.226562 19.921875 -2.53125 C 19.648438 -2.84375 19.335938 -3.09375 18.984375 -3.28125 C 18.628906 -3.46875 18.234375 -3.5625 17.796875 -3.5625 C 17.296875 -2.582031 16.722656 -1.8125 16.078125 -1.25 C 15.429688 -0.6875 14.722656 -0.257812 13.953125 0.03125 C 13.191406 0.332031 12.375 0.523438 11.5 0.609375 C 10.625 0.703125 9.695312 0.75 8.71875 0.75 C 7.914062 0.75 7.117188 0.65625 6.328125 0.46875 C 5.546875 0.289062 4.804688 0.0195312 4.109375 -0.34375 C 3.421875 -0.707031 2.796875 -1.160156 2.234375 -1.703125 C 1.679688 -2.253906 1.210938 -2.90625 0.828125 -3.65625 C 0.335938 -4.65625 0.09375 -5.894531 0.09375 -7.375 C 0.09375 -8.3125 0.25 -9.15625 0.5625 -9.90625 C 0.875 -10.664062 1.296875 -11.351562 1.828125 -11.96875 C 2.359375 -12.582031 2.976562 -13.125 3.6875 -13.59375 C 4.394531 -14.070312 5.132812 -14.492188 5.90625 -14.859375 C 6.4375 -15.117188 6.972656 -15.375 7.515625 -15.625 C 8.066406 -15.875 8.625 -16.113281 9.1875 -16.34375 C 11.269531 -17.175781 13.0625 -18.097656 14.5625 -19.109375 C 16.132812 -20.148438 17.019531 -21.5625 17.21875 -23.34375 C 17.175781 -24.1875 17.066406 -25 16.890625 -25.78125 C 16.722656 -26.570312 16.453125 -27.269531 16.078125 -27.875 C 15.703125 -28.476562 15.195312 -28.96875 14.5625 -29.34375 C 13.925781 -29.71875 13.128906 -29.90625 12.171875 -29.90625 C 10.804688 -29.90625 9.738281 -29.601562 8.96875 -29 C 8.207031 -28.394531 7.691406 -27.421875 7.421875 -26.078125 C 7.328125 -25.503906 7.25 -24.898438 7.1875 -24.265625 C 7.132812 -23.628906 7.109375 -22.976562 7.109375 -22.3125 C 7.109375 -21.96875 7.039062 -21.640625 6.90625 -21.328125 C 6.769531 -21.023438 6.585938 -20.753906 6.359375 -20.515625 C 6.128906 -20.285156 5.859375 -20.101562 5.546875 -19.96875 C 5.242188 -19.84375 4.921875 -19.78125 4.578125 -19.78125 C 4.265625 -19.78125 3.953125 -19.847656 3.640625 -19.984375 C 3.335938 -20.128906 3.066406 -20.320312 2.828125 -20.5625 C 2.585938 -20.800781 2.394531 -21.070312 2.25 -21.375 C 2.113281 -21.6875 2.046875 -22 2.046875 -22.3125 C 2.046875 -23.613281 2.351562 -24.785156 2.96875 -25.828125 C 3.582031 -26.878906 4.375 -27.769531 5.34375 -28.5 C 6.3125 -29.226562 7.394531 -29.785156 8.59375 -30.171875 C 9.789062 -30.566406 10.984375 -30.765625 12.171875 -30.765625 C 13.671875 -30.765625 15.039062 -30.5625 16.28125 -30.15625 C 17.519531 -29.757812 18.578125 -29.171875 19.453125 -28.390625 C 20.335938 -27.617188 21.019531 -26.65625 21.5 -25.5 C 21.976562 -24.351562 22.21875 -23.03125 22.21875 -21.53125 L 22.21875 0.234375 L 21.390625 0.234375 Z M 17.21875 -20.671875 C 17.039062 -20.148438 16.75 -19.648438 16.34375 -19.171875 C 15.945312 -18.691406 15.503906 -18.242188 15.015625 -17.828125 C 14.523438 -17.421875 14.015625 -17.039062 13.484375 -16.6875 C 12.953125 -16.332031 12.457031 -16.007812 12 -15.71875 C 11.269531 -15.257812 10.503906 -14.75 9.703125 -14.1875 C 8.910156 -13.632812 8.175781 -13.019531 7.5 -12.34375 C 6.832031 -11.675781 6.28125 -10.941406 5.84375 -10.140625 C 5.414062 -9.347656 5.203125 -8.460938 5.203125 -7.484375 C 5.203125 -6.890625 5.242188 -6.269531 5.328125 -5.625 C 5.421875 -4.976562 5.570312 -4.359375 5.78125 -3.765625 C 6 -3.171875 6.289062 -2.617188 6.65625 -2.109375 C 7.019531 -1.609375 7.476562 -1.179688 8.03125 -0.828125 C 8.851562 -0.335938 9.671875 -0.09375 10.484375 -0.09375 C 11.210938 -0.09375 11.972656 -0.203125 12.765625 -0.421875 C 13.566406 -0.640625 14.296875 -0.96875 14.953125 -1.40625 C 15.617188 -1.851562 16.160156 -2.394531 16.578125 -3.03125 C 17.003906 -3.675781 17.21875 -4.421875 17.21875 -5.265625 Z M 17.21875 -20.671875 "/></g></g></g><g fill="#e6e6fa" fill-opacity="1"><g transform="translate(475.026189, 46.753679)"><g><path d="M 12.6875 -29.625 L 7.65625 -29.625 L 7.65625 -6.046875 C 7.65625 -5.242188 7.757812 -4.503906 7.96875 -3.828125 C 8.1875 -3.160156 8.5 -2.578125 8.90625 -2.078125 C 9.320312 -1.578125 9.84375 -1.175781 10.46875 -0.875 C 11.09375 -0.582031 11.804688 -0.414062 12.609375 -0.375 L 12.609375 0.453125 L 11.578125 0.453125 C 10.367188 0.453125 9.21875 0.367188 8.125 0.203125 C 7.039062 0.046875 6.085938 -0.257812 5.265625 -0.71875 C 4.441406 -1.175781 3.785156 -1.832031 3.296875 -2.6875 C 2.804688 -3.539062 2.5625 -4.660156 2.5625 -6.046875 L 2.5625 -23.453125 C 2.5625 -24.546875 2.5625 -25.601562 2.5625 -26.625 C 2.5625 -27.644531 2.570312 -28.644531 2.59375 -29.625 L 0 -29.625 L 0 -30.453125 C 1.09375 -30.453125 2.0625 -30.554688 2.90625 -30.765625 C 3.75 -30.984375 4.457031 -31.332031 5.03125 -31.8125 C 5.613281 -32.289062 6.050781 -32.910156 6.34375 -33.671875 C 6.644531 -34.441406 6.796875 -35.382812 6.796875 -36.5 L 7.65625 -36.5 L 7.65625 -30.453125 L 12.6875 -30.453125 Z M 12.6875 -29.625 "/></g></g></g><g fill="#e6e6fa" fill-opacity="1"><g transform="translate(503.470278, 46.753679)"><g/></g></g><g fill="#e6e6fa" fill-opacity="1"><g transform="translate(529.23724, 46.753679)"><g><path d="M 8.984375 0.03125 L 0.03125 0.03125 L 0.03125 -0.8125 C 1.039062 -0.8125 1.972656 -1.40625 2.828125 -2.59375 C 3.671875 -3.78125 4.09375 -5.273438 4.09375 -7.078125 L 4.09375 -40.359375 C 4.070312 -40.679688 4.039062 -41.046875 4 -41.453125 C 3.957031 -41.859375 3.878906 -42.25 3.765625 -42.625 C 3.648438 -43.007812 3.488281 -43.363281 3.28125 -43.6875 C 3.070312 -44.019531 2.800781 -44.269531 2.46875 -44.4375 C 2.101562 -44.613281 1.796875 -44.703125 1.546875 -44.703125 L 1.546875 -45.5625 L 9.4375 -45.5625 L 22.359375 -8.125 L 33.9375 -45.5625 L 41.890625 -45.5625 L 41.890625 -44.734375 C 41.390625 -44.734375 40.972656 -44.5625 40.640625 -44.21875 C 40.316406 -43.882812 40.050781 -43.519531 39.84375 -43.125 C 39.507812 -42.425781 39.34375 -41.367188 39.34375 -39.953125 L 39.34375 -5.578125 C 39.34375 -5.253906 39.359375 -4.867188 39.390625 -4.421875 C 39.421875 -3.984375 39.492188 -3.546875 39.609375 -3.109375 C 39.722656 -2.679688 39.882812 -2.285156 40.09375 -1.921875 C 40.3125 -1.554688 40.59375 -1.289062 40.9375 -1.125 C 41.320312 -0.925781 41.640625 -0.828125 41.890625 -0.828125 L 41.890625 0.03125 L 31.484375 0.03125 L 31.484375 -0.828125 C 31.984375 -0.828125 32.394531 -0.992188 32.71875 -1.328125 C 33.050781 -1.671875 33.320312 -2.046875 33.53125 -2.453125 C 33.863281 -3.140625 34.03125 -4.179688 34.03125 -5.578125 L 34.03125 -43.0625 L 20.71875 0.03125 L 19.828125 0.03125 L 4.921875 -43.09375 L 4.921875 -7.078125 C 4.921875 -6.441406 4.984375 -5.753906 5.109375 -5.015625 C 5.234375 -4.285156 5.441406 -3.609375 5.734375 -2.984375 C 6.035156 -2.359375 6.445312 -1.835938 6.96875 -1.421875 C 7.5 -1.015625 8.171875 -0.8125 8.984375 -0.8125 Z M 8.984375 0.03125 "/></g></g></g><g fill="#e6e6fa" fill-opacity="1"><g transform="translate(586.841931, 46.753679)"><g><path d="M 21.1875 -0.375 C 21.050781 -0.738281 20.875 -1.113281 20.65625 -1.5 C 20.445312 -1.882812 20.203125 -2.226562 19.921875 -2.53125 C 19.648438 -2.84375 19.335938 -3.09375 18.984375 -3.28125 C 18.628906 -3.46875 18.234375 -3.5625 17.796875 -3.5625 C 17.296875 -2.582031 16.722656 -1.8125 16.078125 -1.25 C 15.429688 -0.6875 14.722656 -0.257812 13.953125 0.03125 C 13.191406 0.332031 12.375 0.523438 11.5 0.609375 C 10.625 0.703125 9.695312 0.75 8.71875 0.75 C 7.914062 0.75 7.117188 0.65625 6.328125 0.46875 C 5.546875 0.289062 4.804688 0.0195312 4.109375 -0.34375 C 3.421875 -0.707031 2.796875 -1.160156 2.234375 -1.703125 C 1.679688 -2.253906 1.210938 -2.90625 0.828125 -3.65625 C 0.335938 -4.65625 0.09375 -5.894531 0.09375 -7.375 C 0.09375 -8.3125 0.25 -9.15625 0.5625 -9.90625 C 0.875 -10.664062 1.296875 -11.351562 1.828125 -11.96875 C 2.359375 -12.582031 2.976562 -13.125 3.6875 -13.59375 C 4.394531 -14.070312 5.132812 -14.492188 5.90625 -14.859375 C 6.4375 -15.117188 6.972656 -15.375 7.515625 -15.625 C 8.066406 -15.875 8.625 -16.113281 9.1875 -16.34375 C 11.269531 -17.175781 13.0625 -18.097656 14.5625 -19.109375 C 16.132812 -20.148438 17.019531 -21.5625 17.21875 -23.34375 C 17.175781 -24.1875 17.066406 -25 16.890625 -25.78125 C 16.722656 -26.570312 16.453125 -27.269531 16.078125 -27.875 C 15.703125 -28.476562 15.195312 -28.96875 14.5625 -29.34375 C 13.925781 -29.71875 13.128906 -29.90625 12.171875 -29.90625 C 10.804688 -29.90625 9.738281 -29.601562 8.96875 -29 C 8.207031 -28.394531 7.691406 -27.421875 7.421875 -26.078125 C 7.328125 -25.503906 7.25 -24.898438 7.1875 -24.265625 C 7.132812 -23.628906 7.109375 -22.976562 7.109375 -22.3125 C 7.109375 -21.96875 7.039062 -21.640625 6.90625 -21.328125 C 6.769531 -21.023438 6.585938 -20.753906 6.359375 -20.515625 C 6.128906 -20.285156 5.859375 -20.101562 5.546875 -19.96875 C 5.242188 -19.84375 4.921875 -19.78125 4.578125 -19.78125 C 4.265625 -19.78125 3.953125 -19.847656 3.640625 -19.984375 C 3.335938 -20.128906 3.066406 -20.320312 2.828125 -20.5625 C 2.585938 -20.800781 2.394531 -21.070312 2.25 -21.375 C 2.113281 -21.6875 2.046875 -22 2.046875 -22.3125 C 2.046875 -23.613281 2.351562 -24.785156 2.96875 -25.828125 C 3.582031 -26.878906 4.375 -27.769531 5.34375 -28.5 C 6.3125 -29.226562 7.394531 -29.785156 8.59375 -30.171875 C 9.789062 -30.566406 10.984375 -30.765625 12.171875 -30.765625 C 13.671875 -30.765625 15.039062 -30.5625 16.28125 -30.15625 C 17.519531 -29.757812 18.578125 -29.171875 19.453125 -28.390625 C 20.335938 -27.617188 21.019531 -26.65625 21.5 -25.5 C 21.976562 -24.351562 22.21875 -23.03125 22.21875 -21.53125 L 22.21875 0.234375 L 21.390625 0.234375 Z M 17.21875 -20.671875 C 17.039062 -20.148438 16.75 -19.648438 16.34375 -19.171875 C 15.945312 -18.691406 15.503906 -18.242188 15.015625 -17.828125 C 14.523438 -17.421875 14.015625 -17.039062 13.484375 -16.6875 C 12.953125 -16.332031 12.457031 -16.007812 12 -15.71875 C 11.269531 -15.257812 10.503906 -14.75 9.703125 -14.1875 C 8.910156 -13.632812 8.175781 -13.019531 7.5 -12.34375 C 6.832031 -11.675781 6.28125 -10.941406 5.84375 -10.140625 C 5.414062 -9.347656 5.203125 -8.460938 5.203125 -7.484375 C 5.203125 -6.890625 5.242188 -6.269531 5.328125 -5.625 C 5.421875 -4.976562 5.570312 -4.359375 5.78125 -3.765625 C 6 -3.171875 6.289062 -2.617188 6.65625 -2.109375 C 7.019531 -1.609375 7.476562 -1.179688 8.03125 -0.828125 C 8.851562 -0.335938 9.671875 -0.09375 10.484375 -0.09375 C 11.210938 -0.09375 11.972656 -0.203125 12.765625 -0.421875 C 13.566406 -0.640625 14.296875 -0.96875 14.953125 -1.40625 C 15.617188 -1.851562 16.160156 -2.394531 16.578125 -3.03125 C 17.003906 -3.675781 17.21875 -4.421875 17.21875 -5.265625 Z M 17.21875 -20.671875 "/></g></g></g><g fill="#e6e6fa" fill-opacity="1"><g transform="translate(624.727955, 46.753679)"><g><path d="M 12.6875 -29.625 L 7.65625 -29.625 L 7.65625 -6.046875 C 7.65625 -5.242188 7.757812 -4.503906 7.96875 -3.828125 C 8.1875 -3.160156 8.5 -2.578125 8.90625 -2.078125 C 9.320312 -1.578125 9.84375 -1.175781 10.46875 -0.875 C 11.09375 -0.582031 11.804688 -0.414062 12.609375 -0.375 L 12.609375 0.453125 L 11.578125 0.453125 C 10.367188 0.453125 9.21875 0.367188 8.125 0.203125 C 7.039062 0.046875 6.085938 -0.257812 5.265625 -0.71875 C 4.441406 -1.175781 3.785156 -1.832031 3.296875 -2.6875 C 2.804688 -3.539062 2.5625 -4.660156 2.5625 -6.046875 L 2.5625 -23.453125 C 2.5625 -24.546875 2.5625 -25.601562 2.5625 -26.625 C 2.5625 -27.644531 2.570312 -28.644531 2.59375 -29.625 L 0 -29.625 L 0 -30.453125 C 1.09375 -30.453125 2.0625 -30.554688 2.90625 -30.765625 C 3.75 -30.984375 4.457031 -31.332031 5.03125 -31.8125 C 5.613281 -32.289062 6.050781 -32.910156 6.34375 -33.671875 C 6.644531 -34.441406 6.796875 -35.382812 6.796875 -36.5 L 7.65625 -36.5 L 7.65625 -30.453125 L 12.6875 -30.453125 Z M 12.6875 -29.625 "/></g></g></g><g fill="#e6e6fa" fill-opacity="1"><g transform="translate(653.172043, 46.753679)"><g><path d="M 12.6875 -29.625 L 7.65625 -29.625 L 7.65625 -6.046875 C 7.65625 -5.242188 7.757812 -4.503906 7.96875 -3.828125 C 8.1875 -3.160156 8.5 -2.578125 8.90625 -2.078125 C 9.320312 -1.578125 9.84375 -1.175781 10.46875 -0.875 C 11.09375 -0.582031 11.804688 -0.414062 12.609375 -0.375 L 12.609375 0.453125 L 11.578125 0.453125 C 10.367188 0.453125 9.21875 0.367188 8.125 0.203125 C 7.039062 0.046875 6.085938 -0.257812 5.265625 -0.71875 C 4.441406 -1.175781 3.785156 -1.832031 3.296875 -2.6875 C 2.804688 -3.539062 2.5625 -4.660156 2.5625 -6.046875 L 2.5625 -23.453125 C 2.5625 -24.546875 2.5625 -25.601562 2.5625 -26.625 C 2.5625 -27.644531 2.570312 -28.644531 2.59375 -29.625 L 0 -29.625 L 0 -30.453125 C 1.09375 -30.453125 2.0625 -30.554688 2.90625 -30.765625 C 3.75 -30.984375 4.457031 -31.332031 5.03125 -31.8125 C 5.613281 -32.289062 6.050781 -32.910156 6.34375 -33.671875 C 6.644531 -34.441406 6.796875 -35.382812 6.796875 -36.5 L 7.65625 -36.5 L 7.65625 -30.453125 L 12.6875 -30.453125 Z M 12.6875 -29.625 "/></g></g></g><g fill="#e6e6fa" fill-opacity="1"><g transform="translate(681.616132, 46.753679)"><g><path d="M 13.125 -12.46875 C 12.414062 -12.195312 11.660156 -11.878906 10.859375 -11.515625 C 10.066406 -11.148438 9.335938 -10.71875 8.671875 -10.21875 C 8.015625 -9.71875 7.46875 -9.125 7.03125 -8.4375 C 6.601562 -7.757812 6.390625 -6.972656 6.390625 -6.078125 L 6.390625 -5.984375 C 6.390625 -5.523438 6.472656 -5.0625 6.640625 -4.59375 C 6.816406 -4.125 7.039062 -3.671875 7.3125 -3.234375 C 7.582031 -2.804688 7.894531 -2.414062 8.25 -2.0625 C 8.601562 -1.707031 8.960938 -1.394531 9.328125 -1.125 C 10.242188 -0.4375 11.257812 -0.09375 12.375 -0.09375 C 13.625 -0.09375 14.671875 -0.414062 15.515625 -1.0625 C 16.359375 -1.71875 17.035156 -2.535156 17.546875 -3.515625 C 18.054688 -4.492188 18.421875 -5.554688 18.640625 -6.703125 C 18.859375 -7.859375 18.96875 -8.941406 18.96875 -9.953125 L 22.28125 -4.3125 C 21.601562 -3.351562 20.804688 -2.523438 19.890625 -1.828125 C 18.984375 -1.128906 17.992188 -0.539062 16.921875 -0.0625 C 15.617188 0.53125 14.101562 0.828125 12.375 0.828125 C 11.664062 0.828125 10.953125 0.742188 10.234375 0.578125 C 9.515625 0.421875 8.820312 0.195312 8.15625 -0.09375 C 7.5 -0.394531 6.863281 -0.75 6.25 -1.15625 C 5.632812 -1.570312 5.066406 -2.019531 4.546875 -2.5 C 3.679688 -3.289062 2.960938 -4.175781 2.390625 -5.15625 C 1.828125 -6.132812 1.375 -7.164062 1.03125 -8.25 C 0.6875 -9.332031 0.441406 -10.441406 0.296875 -11.578125 C 0.160156 -12.722656 0.09375 -13.851562 0.09375 -14.96875 C 0.09375 -16.289062 0.1875 -17.628906 0.375 -18.984375 C 0.5625 -20.335938 0.882812 -21.632812 1.34375 -22.875 C 1.8125 -24.125 2.4375 -25.273438 3.21875 -26.328125 C 4.007812 -27.390625 5 -28.296875 6.1875 -29.046875 C 7.050781 -29.578125 7.972656 -29.992188 8.953125 -30.296875 C 9.929688 -30.609375 10.929688 -30.765625 11.953125 -30.765625 C 12.796875 -30.765625 13.632812 -30.671875 14.46875 -30.484375 C 15.300781 -30.296875 16.097656 -30.007812 16.859375 -29.625 C 17.628906 -29.238281 18.335938 -28.765625 18.984375 -28.203125 C 19.628906 -27.648438 20.160156 -27 20.578125 -26.25 C 21.171875 -25.238281 21.46875 -24.003906 21.46875 -22.546875 C 21.46875 -21.078125 21.289062 -19.816406 20.9375 -18.765625 C 20.582031 -17.710938 20.066406 -16.800781 19.390625 -16.03125 C 18.722656 -15.257812 17.894531 -14.601562 16.90625 -14.0625 C 15.914062 -13.53125 14.800781 -13.046875 13.5625 -12.609375 C 13.363281 -12.535156 13.21875 -12.488281 13.125 -12.46875 Z M 5.75 -7.796875 C 5.925781 -8.410156 6.25 -9.015625 6.71875 -9.609375 C 7.1875 -10.203125 7.71875 -10.757812 8.3125 -11.28125 C 8.914062 -11.800781 9.535156 -12.28125 10.171875 -12.71875 C 10.816406 -13.164062 11.410156 -13.539062 11.953125 -13.84375 C 13.710938 -14.894531 14.988281 -16.148438 15.78125 -17.609375 C 16.582031 -19.066406 16.984375 -20.828125 16.984375 -22.890625 C 16.984375 -23.753906 16.90625 -24.601562 16.75 -25.4375 C 16.59375 -26.269531 16.320312 -27.015625 15.9375 -27.671875 C 15.5625 -28.335938 15.050781 -28.867188 14.40625 -29.265625 C 13.757812 -29.671875 12.941406 -29.875 11.953125 -29.875 C 11.253906 -29.875 10.609375 -29.722656 10.015625 -29.421875 C 9.421875 -29.128906 8.878906 -28.742188 8.390625 -28.265625 C 7.898438 -27.785156 7.460938 -27.257812 7.078125 -26.6875 C 6.691406 -26.113281 6.375 -25.535156 6.125 -24.953125 C 5.570312 -23.710938 5.191406 -22.375 4.984375 -20.9375 C 4.785156 -19.507812 4.6875 -18.113281 4.6875 -16.75 C 4.6875 -15.488281 4.769531 -14.113281 4.9375 -12.625 C 5.113281 -11.132812 5.382812 -9.523438 5.75 -7.796875 Z M 5.75 -7.796875 "/></g></g></g><g fill="#e6e6fa" fill-opacity="1"><g transform="translate(719.559711, 46.753679)"><g><path d="M 21.25 -23.953125 C 21.25 -22.679688 20.945312 -21.78125 20.34375 -21.25 C 19.75 -20.664062 19.117188 -20.375 18.453125 -20.375 C 17.773438 -20.375 17.128906 -20.609375 16.515625 -21.078125 C 15.921875 -21.535156 15.625 -22.28125 15.625 -23.3125 C 15.625 -24.289062 15.65625 -25.164062 15.71875 -25.9375 C 15.757812 -26.257812 15.78125 -26.554688 15.78125 -26.828125 C 15.78125 -27.097656 15.78125 -27.359375 15.78125 -27.609375 L 15.78125 -28.40625 C 15.738281 -28.925781 15.5625 -29.304688 15.25 -29.546875 C 14.945312 -29.785156 14.546875 -29.90625 14.046875 -29.90625 C 13.273438 -29.90625 12.585938 -29.578125 11.984375 -28.921875 C 11.378906 -28.273438 10.847656 -27.429688 10.390625 -26.390625 C 9.929688 -25.359375 9.535156 -24.195312 9.203125 -22.90625 C 8.878906 -21.625 8.609375 -20.347656 8.390625 -19.078125 C 8.171875 -17.816406 8.003906 -16.628906 7.890625 -15.515625 C 7.773438 -14.398438 7.695312 -13.507812 7.65625 -12.84375 L 7.65625 -5.0625 C 7.65625 -4.78125 7.675781 -4.425781 7.71875 -4 C 7.769531 -3.582031 7.851562 -3.164062 7.96875 -2.75 C 8.082031 -2.332031 8.242188 -1.957031 8.453125 -1.625 C 8.671875 -1.289062 8.941406 -1.046875 9.265625 -0.890625 C 9.628906 -0.703125 9.925781 -0.609375 10.15625 -0.609375 L 10.15625 0.265625 L 0.0625 0.265625 L 0.0625 -0.609375 C 0.5 -0.609375 0.890625 -0.757812 1.234375 -1.0625 C 1.578125 -1.375 1.847656 -1.71875 2.046875 -2.09375 C 2.347656 -2.726562 2.519531 -3.703125 2.5625 -5.015625 L 2.5625 -20.46875 C 2.539062 -21.695312 2.53125 -22.625 2.53125 -23.25 C 2.53125 -23.882812 2.53125 -24.242188 2.53125 -24.328125 C 2.53125 -25.078125 2.304688 -25.664062 1.859375 -26.09375 C 1.410156 -26.519531 0.8125 -26.734375 0.0625 -26.734375 L 0.0625 -27.578125 C 1.09375 -27.578125 2.125 -27.710938 3.15625 -27.984375 C 4.195312 -28.265625 5.09375 -28.78125 5.84375 -29.53125 C 6.050781 -29.707031 6.222656 -29.851562 6.359375 -29.96875 C 6.515625 -30.0625 6.671875 -30.109375 6.828125 -30.109375 L 7.65625 -30.109375 L 7.65625 -21.09375 C 7.8125 -21.75 7.992188 -22.460938 8.203125 -23.234375 C 8.410156 -24.015625 8.660156 -24.789062 8.953125 -25.5625 C 9.242188 -26.332031 9.578125 -27.0625 9.953125 -27.75 C 10.335938 -28.4375 10.78125 -29.019531 11.28125 -29.5 C 12.164062 -30.34375 13.347656 -30.765625 14.828125 -30.765625 C 16.992188 -30.765625 18.601562 -30.148438 19.65625 -28.921875 C 20.71875 -27.703125 21.25 -26.046875 21.25 -23.953125 Z M 21.25 -23.953125 "/></g></g></g><g fill="#e6e6fa" fill-opacity="1"><g transform="translate(756.495759, 46.753679)"><g><path d="M 1.0625 -22.546875 C 1.0625 -23.273438 1.175781 -23.972656 1.40625 -24.640625 C 1.632812 -25.304688 1.945312 -25.929688 2.34375 -26.515625 C 2.738281 -27.109375 3.203125 -27.648438 3.734375 -28.140625 C 4.273438 -28.628906 4.84375 -29.054688 5.4375 -29.421875 C 6.957031 -30.265625 8.835938 -30.6875 11.078125 -30.6875 C 11.734375 -30.6875 12.394531 -30.601562 13.0625 -30.4375 C 13.738281 -30.28125 14.382812 -30.050781 15 -29.75 C 15.613281 -29.445312 16.191406 -29.085938 16.734375 -28.671875 C 17.285156 -28.265625 17.757812 -27.800781 18.15625 -27.28125 C 18.96875 -26.3125 19.375 -25.285156 19.375 -24.203125 C 19.375 -24.085938 19.363281 -23.945312 19.34375 -23.78125 C 19.320312 -23.625 19.285156 -23.429688 19.234375 -23.203125 C 19.097656 -22.523438 18.789062 -22.050781 18.3125 -21.78125 C 17.84375 -21.519531 17.296875 -21.390625 16.671875 -21.390625 C 15.992188 -21.390625 15.472656 -21.609375 15.109375 -22.046875 C 14.722656 -22.453125 14.53125 -22.929688 14.53125 -23.484375 C 14.53125 -24.179688 14.640625 -24.738281 14.859375 -25.15625 C 15.046875 -25.601562 15.140625 -26.082031 15.140625 -26.59375 C 15.140625 -28.613281 13.796875 -29.679688 11.109375 -29.796875 C 10.285156 -29.796875 9.53125 -29.640625 8.84375 -29.328125 C 8.164062 -29.023438 7.582031 -28.609375 7.09375 -28.078125 C 6.601562 -27.546875 6.226562 -26.925781 5.96875 -26.21875 C 5.707031 -25.507812 5.578125 -24.753906 5.578125 -23.953125 C 5.578125 -22.910156 5.785156 -22.015625 6.203125 -21.265625 C 6.628906 -20.523438 7.179688 -19.875 7.859375 -19.3125 C 8.546875 -18.757812 9.300781 -18.269531 10.125 -17.84375 C 10.957031 -17.425781 11.773438 -17.035156 12.578125 -16.671875 C 13.617188 -16.222656 14.613281 -15.742188 15.5625 -15.234375 C 16.507812 -14.734375 17.351562 -14.140625 18.09375 -13.453125 C 18.832031 -12.773438 19.421875 -11.984375 19.859375 -11.078125 C 20.304688 -10.179688 20.53125 -9.109375 20.53125 -7.859375 C 20.53125 -6.515625 20.234375 -5.304688 19.640625 -4.234375 C 19.054688 -3.160156 18.296875 -2.25 17.359375 -1.5 C 16.421875 -0.75 15.347656 -0.175781 14.140625 0.21875 C 12.941406 0.625 11.722656 0.828125 10.484375 0.828125 C 9.597656 0.828125 8.722656 0.75 7.859375 0.59375 C 6.992188 0.445312 6.164062 0.207031 5.375 -0.125 C 4.59375 -0.46875 3.851562 -0.890625 3.15625 -1.390625 C 2.46875 -1.898438 1.847656 -2.507812 1.296875 -3.21875 C 0.796875 -3.894531 0.453125 -4.484375 0.265625 -4.984375 L 3.28125 -10.3125 C 3.28125 -9.675781 3.351562 -8.976562 3.5 -8.21875 C 3.644531 -7.457031 3.851562 -6.695312 4.125 -5.9375 C 4.40625 -5.1875 4.742188 -4.453125 5.140625 -3.734375 C 5.546875 -3.023438 6.019531 -2.394531 6.5625 -1.84375 C 7.101562 -1.300781 7.695312 -0.867188 8.34375 -0.546875 C 9 -0.222656 9.710938 -0.0625 10.484375 -0.0625 C 11.472656 -0.0625 12.316406 -0.195312 13.015625 -0.46875 C 13.722656 -0.75 14.300781 -1.148438 14.75 -1.671875 C 15.195312 -2.203125 15.519531 -2.84375 15.71875 -3.59375 C 15.925781 -4.34375 16.03125 -5.1875 16.03125 -6.125 C 16.03125 -7.4375 15.703125 -8.523438 15.046875 -9.390625 C 14.398438 -10.265625 13.539062 -11.03125 12.46875 -11.6875 C 11.925781 -12.007812 11.375 -12.316406 10.8125 -12.609375 C 10.257812 -12.910156 9.675781 -13.195312 9.0625 -13.46875 C 8.03125 -13.96875 7.035156 -14.476562 6.078125 -15 C 5.117188 -15.53125 4.265625 -16.140625 3.515625 -16.828125 C 2.765625 -17.523438 2.164062 -18.332031 1.71875 -19.25 C 1.28125 -20.175781 1.0625 -21.273438 1.0625 -22.546875 Z M 1.0625 -22.546875 "/></g></g></g></g></g></g><g transform="matrix(1, 0, 0, 1, 133, 0)"><g clip-path="url(#bd9e5b6d91)"><g fill="#e6e6fa" fill-opacity="1"><g transform="translate(0.818023, 109.265504)"><g><path d="M 3.265625 -91.15625 L 3.265625 -109.046875 L 80.578125 -109.046875 L 80.578125 -91.15625 C 78.179688 -93.632812 75.203125 -96.050781 71.640625 -98.40625 C 68.078125 -100.769531 64.367188 -102.785156 60.515625 -104.453125 C 56.660156 -106.128906 53.097656 -107.078125 49.828125 -107.296875 L 49.828125 0 L 34.015625 0 L 34.015625 -107.296875 C 30.742188 -107.078125 27.179688 -106.128906 23.328125 -104.453125 C 19.484375 -102.785156 15.78125 -100.769531 12.21875 -98.40625 C 8.65625 -96.050781 5.671875 -93.632812 3.265625 -91.15625 Z M 3.265625 -91.15625 "/></g></g></g><g clip-path="url(#6a2ac8214a)"><g fill="#e6e6fa" fill-opacity="1"><g transform="translate(84.668509, 109.265504)"><g><path d="M 7.75 -95.09375 C 7.75 -98.070312 7.128906 -99.921875 5.890625 -100.640625 C 4.648438 -101.367188 2.6875 -101.734375 0 -101.734375 L 0 -102.28125 C 2.6875 -102.644531 5.484375 -103.226562 8.390625 -104.03125 C 11.304688 -104.832031 14.085938 -105.773438 16.734375 -106.859375 C 19.390625 -107.953125 21.660156 -109.046875 23.546875 -110.140625 L 23.546875 -51.796875 C 23.910156 -54.117188 24.765625 -56.625 26.109375 -59.3125 C 27.460938 -62.007812 29.265625 -64.554688 31.515625 -66.953125 C 33.765625 -69.347656 36.46875 -71.328125 39.625 -72.890625 C 42.789062 -74.460938 46.335938 -75.25 50.265625 -75.25 C 51.722656 -75.25 53.503906 -75.066406 55.609375 -74.703125 C 57.722656 -74.335938 59.796875 -73.515625 61.828125 -72.234375 C 63.867188 -70.960938 65.578125 -68.925781 66.953125 -66.125 C 68.335938 -63.332031 69.03125 -59.46875 69.03125 -54.53125 L 69.03125 0 L 53.21875 0 L 53.21875 -59.96875 C 53.21875 -63.457031 52.398438 -66.054688 50.765625 -67.765625 C 49.128906 -69.472656 47 -70.328125 44.375 -70.328125 C 41.46875 -70.328125 38.742188 -69.523438 36.203125 -67.921875 C 33.660156 -66.328125 31.441406 -64.164062 29.546875 -61.4375 C 27.660156 -58.71875 26.1875 -55.613281 25.125 -52.125 C 24.070312 -48.632812 23.546875 -45 23.546875 -41.21875 L 23.546875 0 L 7.75 0 Z M 7.75 -95.09375 "/></g></g></g></g><g fill="#e6e6fa" fill-opacity="1"><g transform="translate(160.23208, 109.265504)"><g><path d="M 42.421875 1.09375 C 37.328125 1.09375 32.5625 0.164062 28.125 -1.6875 C 23.695312 -3.539062 19.773438 -6.15625 16.359375 -9.53125 C 12.941406 -12.914062 10.269531 -16.863281 8.34375 -21.375 C 6.414062 -25.882812 5.453125 -30.753906 5.453125 -35.984375 C 5.453125 -41.078125 6.125 -45.96875 7.46875 -50.65625 C 8.8125 -55.34375 10.898438 -59.539062 13.734375 -63.25 C 16.578125 -66.957031 20.25 -69.882812 24.75 -72.03125 C 29.257812 -74.175781 34.675781 -75.25 41 -75.25 C 46.382812 -75.25 51.070312 -74.320312 55.0625 -72.46875 C 59.0625 -70.613281 62.171875 -68.210938 64.390625 -65.265625 C 66.609375 -62.316406 67.71875 -59.171875 67.71875 -55.828125 C 67.71875 -52.554688 66.863281 -49.921875 65.15625 -47.921875 C 63.445312 -45.921875 61.210938 -44.210938 58.453125 -42.796875 C 55.691406 -41.378906 52.78125 -39.945312 49.71875 -38.5 C 46.226562 -36.820312 42.773438 -35.109375 39.359375 -33.359375 C 35.941406 -31.617188 32.851562 -30.019531 30.09375 -28.5625 C 27.332031 -27.113281 25.148438 -25.953125 23.546875 -25.078125 C 26.316406 -21.515625 29.734375 -18.675781 33.796875 -16.5625 C 37.867188 -14.457031 42.453125 -13.40625 47.546875 -13.40625 C 51.617188 -13.40625 55.523438 -14.238281 59.265625 -15.90625 C 63.015625 -17.582031 65.941406 -19.769531 68.046875 -22.46875 L 68.59375 -22.46875 L 62.375 -2.9375 C 59.46875 -1.488281 56.285156 -0.457031 52.828125 0.15625 C 49.378906 0.78125 45.910156 1.09375 42.421875 1.09375 Z M 32.9375 -72.078125 C 28.9375 -72.078125 25.644531 -71.019531 23.0625 -68.90625 C 20.476562 -66.800781 18.585938 -64.113281 17.390625 -60.84375 C 16.191406 -57.570312 15.59375 -54.15625 15.59375 -50.59375 C 15.59375 -41.144531 17.957031 -33.039062 22.6875 -26.28125 C 23.988281 -27.007812 25.820312 -28.117188 28.1875 -29.609375 C 30.550781 -31.097656 33.078125 -32.84375 35.765625 -34.84375 C 38.453125 -36.84375 41.03125 -39.003906 43.5 -41.328125 C 45.976562 -43.648438 48 -46.046875 49.5625 -48.515625 C 51.125 -50.992188 51.90625 -53.429688 51.90625 -55.828125 C 51.90625 -57.285156 51.628906 -58.941406 51.078125 -60.796875 C 50.535156 -62.648438 49.570312 -64.429688 48.1875 -66.140625 C 46.8125 -67.847656 44.890625 -69.265625 42.421875 -70.390625 C 39.953125 -71.515625 36.789062 -72.078125 32.9375 -72.078125 Z M 32.9375 -72.078125 "/></g></g></g></g></g></g></g></g></svg>