<svg xmlns="http://www.w3.org/2000/svg" xmlns:xlink="http://www.w3.org/1999/xlink" width="2000" zoomAndPan="magnify" viewBox="0 0 1500 1499.999933" height="2000" preserveAspectRatio="xMidYMid meet" version="1.0"><defs><g/><clipPath id="41294c9f81"><path d="M 0.960938 0.601562 L 490 0.601562 L 490 842.761719 L 0.960938 842.761719 Z M 0.960938 0.601562 " clip-rule="nonzero"/></clipPath><clipPath id="27b77ee576"><rect x="0" width="490" y="0" height="843"/></clipPath><clipPath id="298c60660b"><path d="M 459.058594 381.578125 L 610.972656 381.578125 L 610.972656 533.492188 L 459.058594 533.492188 Z M 459.058594 381.578125 " clip-rule="nonzero"/></clipPath><clipPath id="cea417f84e"><path d="M 535.015625 381.578125 C 493.066406 381.578125 459.058594 415.585938 459.058594 457.535156 C 459.058594 499.484375 493.066406 533.492188 535.015625 533.492188 C 576.96875 533.492188 610.972656 499.484375 610.972656 457.535156 C 610.972656 415.585938 576.96875 381.578125 535.015625 381.578125 Z M 535.015625 381.578125 " clip-rule="nonzero"/></clipPath><clipPath id="f15493c03f"><path d="M 0.0585938 0.578125 L 151.972656 0.578125 L 151.972656 152.492188 L 0.0585938 152.492188 Z M 0.0585938 0.578125 " clip-rule="nonzero"/></clipPath><clipPath id="f07a4b343e"><path d="M 76.015625 0.578125 C 34.066406 0.578125 0.0585938 34.585938 0.0585938 76.535156 C 0.0585938 118.484375 34.066406 152.492188 76.015625 152.492188 C 117.96875 152.492188 151.972656 118.484375 151.972656 76.535156 C 151.972656 34.585938 117.96875 0.578125 76.015625 0.578125 Z M 76.015625 0.578125 " clip-rule="nonzero"/></clipPath><clipPath id="bf87187578"><rect x="0" width="152" y="0" height="153"/></clipPath><clipPath id="60c994fd1b"><rect x="0" width="612" y="0" height="843"/></clipPath></defs><rect x="-150" width="1800" fill="#ffffff" y="-149.999993" height="1799.99992" fill-opacity="1"/><rect x="-150" width="1800" fill="#5f5381" y="-149.999993" height="1799.99992" fill-opacity="1"/><g transform="matrix(1, 0, 0, 1, 444, 327)"><g clip-path="url(#60c994fd1b)"><g clip-path="url(#41294c9f81)"><g transform="matrix(1, 0, 0, 1, 0, 0.000000000000113687)"><g clip-path="url(#27b77ee576)"><g fill="#e6e6fa" fill-opacity="1"><g transform="translate(1.025444, 628.484553)"><g><path d="M 285.9375 6.203125 C 242.925781 6.203125 205.085938 -2.582031 172.421875 -20.15625 C 139.765625 -37.726562 112.476562 -61.710938 90.5625 -92.109375 C 68.644531 -122.503906 52.207031 -157.132812 41.25 -196 C 30.289062 -234.863281 24.8125 -275.59375 24.8125 -318.1875 C 24.8125 -362.4375 31.21875 -403.269531 44.03125 -440.6875 C 56.851562 -478.101562 75.566406 -510.765625 100.171875 -538.671875 C 124.773438 -566.585938 154.546875 -588.195312 189.484375 -603.5 C 224.421875 -618.800781 263.804688 -626.453125 307.640625 -626.453125 C 329.140625 -626.453125 349.914062 -623.347656 369.96875 -617.140625 C 390.03125 -610.941406 407.914062 -602.878906 423.625 -592.953125 C 439.34375 -583.035156 450.921875 -572.285156 458.359375 -560.703125 L 397.578125 -488.140625 C 373.179688 -517.078125 344.234375 -540.332031 310.734375 -557.90625 C 277.242188 -575.488281 242.925781 -584.28125 207.78125 -584.28125 C 179.664062 -584.28125 155.578125 -575.59375 135.515625 -558.21875 C 115.460938 -540.851562 100.164062 -516.972656 89.625 -486.578125 C 79.082031 -456.191406 73.8125 -421.148438 73.8125 -381.453125 C 73.8125 -342.171875 78.460938 -304.75 87.765625 -269.1875 C 97.066406 -233.625 111.019531 -202.09375 129.625 -174.59375 C 148.238281 -147.101562 171.085938 -125.394531 198.171875 -109.46875 C 225.253906 -93.550781 256.367188 -85.59375 291.515625 -85.59375 C 317.566406 -85.59375 339.378906 -88.796875 356.953125 -95.203125 C 374.523438 -101.617188 388.375 -108.859375 398.5 -116.921875 C 408.632812 -124.984375 415.875 -132.21875 420.21875 -138.625 C 424.5625 -145.03125 426.734375 -148.234375 426.734375 -148.234375 L 476.359375 -68.84375 C 476.359375 -68.84375 472.53125 -65.019531 464.875 -57.375 C 457.226562 -49.726562 445.546875 -41.046875 429.828125 -31.328125 C 414.117188 -21.609375 394.269531 -12.921875 370.28125 -5.265625 C 346.300781 2.378906 318.1875 6.203125 285.9375 6.203125 Z M 285.9375 6.203125 "/></g></g></g></g></g></g><g clip-path="url(#298c60660b)"><g clip-path="url(#cea417f84e)"><g transform="matrix(1, 0, 0, 1, 459, 381)"><g clip-path="url(#bf87187578)"><g clip-path="url(#f15493c03f)"><g clip-path="url(#f07a4b343e)"><path fill="#e6e6fa" d="M 0.0585938 0.578125 L 151.972656 0.578125 L 151.972656 152.492188 L 0.0585938 152.492188 Z M 0.0585938 0.578125 " fill-opacity="1" fill-rule="nonzero"/></g></g></g></g></g></g></g></g></svg>